<?xml version="1.0" encoding="UTF-8"?>
<!DOCTYPE svg PUBLIC "-//W3C//DTD SVG 1.1//EN" "http://www.w3.org/Graphics/SVG/1.1/DTD/svg11.dtd">
<svg xmlns="http://www.w3.org/2000/svg" version="1.1" width="4856px" height="1741px" style="shape-rendering:geometricPrecision; text-rendering:geometricPrecision; image-rendering:optimizeQuality; fill-rule:evenodd; clip-rule:evenodd" xmlns:xlink="http://www.w3.org/1999/xlink">
<g><path style="opacity:0.984" fill="#8bb851" d="M 242.5,170.5 C 240.448,171.053 240.115,172.053 241.5,173.5C 252.65,205.808 263.816,238.141 275,270.5C 286.662,309.627 286.328,348.627 274,387.5C 261.721,420.058 248.887,452.391 235.5,484.5C 236.667,484.833 237.833,485.167 239,485.5C 248.775,483.762 258.609,483.262 268.5,484C 271.82,484.743 274.987,485.91 278,487.5C 279.261,487.241 280.261,486.574 281,485.5C 283.105,478.805 285.271,472.138 287.5,465.5C 285.453,463.985 283.119,463.151 280.5,463C 273.449,462.789 266.449,462.122 259.5,461C 257.545,460.047 255.878,458.713 254.5,457C 257.788,453.235 261.955,451.402 267,451.5C 274.006,452.46 280.84,454.127 287.5,456.5C 288.086,456.291 288.586,455.957 289,455.5C 303.369,406.708 305.369,357.375 295,307.5C 286.378,269.133 273.878,232.133 257.5,196.5C 257.328,195.508 257.662,194.842 258.5,194.5C 286.718,222.265 303.885,255.932 310,295.5C 315.598,331.768 315.932,368.101 311,404.5C 303.876,456.244 296.209,507.911 288,559.5C 280.814,605.055 279.814,650.722 285,696.5C 289.899,721.628 299.233,744.961 313,766.5C 326.832,786.827 340.165,807.493 353,828.5C 359.449,840.378 364.449,852.711 368,865.5C 335.686,833.514 310.019,796.847 291,755.5C 279.122,727.32 271.955,697.986 269.5,667.5C 269.5,666.167 269.5,664.833 269.5,663.5C 267.585,663.216 265.919,663.549 264.5,664.5C 245.676,666.598 226.843,667.931 208,668.5C 206.964,670.87 206.464,673.37 206.5,676C 206.837,681.542 207.504,687.042 208.5,692.5C 219.886,695.988 231.553,697.655 243.5,697.5C 242.349,702.149 239.349,704.982 234.5,706C 226.916,707.238 219.416,707.738 212,707.5C 211.918,713.851 212.418,720.184 213.5,726.5C 213.449,728.1 213.116,729.6 212.5,731C 219.061,729.954 225.728,729.454 232.5,729.5C 243.679,729.172 254.679,729.505 265.5,730.5C 257.694,739.564 247.694,744.064 235.5,744C 231.11,744.772 226.777,744.606 222.5,743.5C 221.339,747.795 221.172,752.129 222,756.5C 225.978,772.742 229.478,789.076 232.5,805.5C 249.647,804.885 266.647,806.052 283.5,809C 276.062,815.817 267.229,819.317 257,819.5C 250.615,818.855 244.449,817.688 238.5,816C 241.885,825.047 247.218,832.713 254.5,839C 273.719,839.854 292.052,836.521 309.5,829C 301.679,844.425 289.013,852.592 271.5,853.5C 257.749,849.532 255.916,852.866 266,863.5C 268.035,866.561 269.201,869.895 269.5,873.5C 286.523,870.854 303.523,868.354 320.5,866C 317.316,871.769 312.649,875.936 306.5,878.5C 296.803,882.565 286.803,885.732 276.5,888C 275.542,889.147 275.875,890.147 277.5,891C 280.211,892.22 283.044,893.053 286,893.5C 302.331,890.557 318.164,885.89 333.5,879.5C 334.767,882.239 334.601,884.906 333,887.5C 320.41,899.759 305.243,906.093 287.5,906.5C 282.198,906.54 277.198,905.374 272.5,903C 270.951,901.786 269.785,900.286 269,898.5C 267.996,906.632 267.496,914.798 267.5,923C 268.352,940.163 268.519,957.33 268,974.5C 266.991,982.693 264.491,990.359 260.5,997.5C 256.372,986.411 254.372,974.911 254.5,963C 256.632,939.421 259.132,915.921 262,892.5C 232.623,842.571 211.123,789.405 197.5,733C 190.423,682.665 188.589,632.165 192,581.5C 193.413,564.767 196.747,548.434 202,532.5C 207.487,525.681 212.154,518.348 216,510.5C 223.134,486.299 229.8,461.965 236,437.5C 243.175,418.816 251.175,400.482 260,382.5C 265.433,366.974 267.933,350.974 267.5,334.5C 267.47,322.061 266.303,309.727 264,297.5C 255.944,266.331 247.277,235.331 238,204.5C 235.02,191.12 232.853,177.62 231.5,164C 232.782,162.089 234.615,161.256 237,161.5C 239.547,161.762 242.047,162.262 244.5,163C 247.99,165.911 251.656,168.578 255.5,171C 254.881,172.757 253.714,173.924 252,174.5C 249.128,172.487 245.962,171.153 242.5,170.5 Z M 277.5,494.5 C 279.423,498.029 280.089,502.029 279.5,506.5C 278.295,513.858 276.962,521.192 275.5,528.5C 274.609,529.11 273.609,529.443 272.5,529.5C 254.021,522.831 236.687,524.998 220.5,536C 222.49,537.751 224.823,538.751 227.5,539C 242.864,541.126 257.864,539.626 272.5,534.5C 272.878,536.646 273.212,538.813 273.5,541C 272.357,548.549 271.023,556.049 269.5,563.5C 259.735,559.518 249.569,557.184 239,556.5C 229.787,556.068 221.954,559.068 215.5,565.5C 213.19,555.961 214.023,546.628 218,537.5C 222.077,528.347 226.41,519.347 231,510.5C 233.136,504.291 234.802,497.958 236,491.5C 242.938,494.705 250.271,496.372 258,496.5C 264.524,495.915 271.024,495.248 277.5,494.5 Z M 266.5,568.5 C 267.9,569.1 268.9,570.1 269.5,571.5C 268.95,590.881 267.617,610.214 265.5,629.5C 265.356,638.552 267.356,647.052 271.5,655C 264.833,655.667 258.167,655.667 251.5,655C 237.148,652.131 222.815,651.964 208.5,654.5C 207.391,654.443 206.391,654.11 205.5,653.5C 204.833,648.5 204.167,643.5 203.5,638.5C 204.49,632.355 204.823,626.022 204.5,619.5C 206.415,619.784 208.081,619.451 209.5,618.5C 224.993,618.651 240.327,617.151 255.5,614C 256.308,613.692 256.975,613.192 257.5,612.5C 243.438,603.943 228.438,601.777 212.5,606C 210.413,606.792 208.579,607.959 207,609.5C 206.085,608.672 205.419,607.672 205,606.5C 204.333,602.5 204.333,598.5 205,594.5C 208.212,586.7 210.712,578.7 212.5,570.5C 230.568,570.975 248.568,570.308 266.5,568.5 Z"/></g>
<g><path style="opacity:0.986" fill="#8ab851" d="M 499.5,168.5 C 500.873,168.343 502.207,168.51 503.5,169C 507.406,170.875 510.906,173.375 514,176.5C 518.33,185.836 523.664,194.502 530,202.5C 534.689,209.876 537.689,217.876 539,226.5C 541,246.495 543,266.495 545,286.5C 550.543,321.424 555.543,356.424 560,391.5C 563.338,442.551 567.338,493.551 572,544.5C 577.39,602.43 572.39,659.43 557,715.5C 550.934,736.031 544.267,756.365 537,776.5C 522.333,813.833 507.667,851.167 493,888.5C 488.212,874.07 488.712,859.737 494.5,845.5C 494,845.167 493.5,844.833 493,844.5C 488.043,846.698 482.876,848.198 477.5,849C 468.833,849.667 460.167,849.667 451.5,849C 435.121,846.258 418.788,843.258 402.5,840C 391.24,838.197 379.906,837.197 368.5,837C 374.728,831.22 382.061,827.553 390.5,826C 397.833,825.333 405.167,825.333 412.5,826C 426.856,828.538 441.189,831.204 455.5,834C 469.154,836.738 482.487,835.738 495.5,831C 521.264,781.378 540.097,729.211 552,674.5C 559.413,633.403 561.08,592.07 557,550.5C 551.784,496.569 547.45,442.569 544,388.5C 538.775,350.817 533.442,313.151 528,275.5C 527.38,269.343 526.88,263.176 526.5,257C 527.449,246.843 527.616,236.676 527,226.5C 526.261,222.615 524.927,218.948 523,215.5C 516.713,206.878 510.047,198.545 503,190.5C 499.271,185.207 496.771,179.374 495.5,173C 496.167,170.849 497.5,169.349 499.5,168.5 Z"/></g>
<g><path style="opacity:0.082" fill="#c0d89e" d="M 242.5,170.5 C 241.89,171.391 241.557,172.391 241.5,173.5C 240.115,172.053 240.448,171.053 242.5,170.5 Z"/></g>
<g><path style="opacity:0.149" fill="#c4d9a3" d="M 533.5,186.5 C 532.508,186.328 531.842,186.662 531.5,187.5C 530.115,186.698 530.282,186.031 532,185.5C 532.765,185.57 533.265,185.903 533.5,186.5 Z"/></g>
<g><path style="opacity:0.979" fill="#8bb852" d="M 533.5,186.5 C 544.756,190.25 553.922,196.917 561,206.5C 569.482,219.468 575.815,233.468 580,248.5C 583.434,261.005 586.101,273.672 588,286.5C 591.72,314.087 594.72,341.754 597,369.5C 598.28,378.902 599.947,388.235 602,397.5C 609.888,428.053 618.555,458.386 628,488.5C 642.606,543.495 645.606,599.162 637,655.5C 628.12,709.326 620.453,763.326 614,817.5C 610.95,839.37 604.95,860.37 596,880.5C 592.75,887.34 588.75,893.673 584,899.5C 582.847,896.644 582.014,893.644 581.5,890.5C 582.962,880.151 585.295,869.984 588.5,860C 588.167,859.5 587.833,859 587.5,858.5C 571.292,865.603 554.626,867.103 537.5,863C 534.339,861.587 531.339,859.92 528.5,858C 526.46,855.815 525.126,853.315 524.5,850.5C 535.799,851.26 547.133,851.26 558.5,850.5C 568.66,850.128 578.66,851.128 588.5,853.5C 600.149,813.62 608.149,772.953 612.5,731.5C 613.473,729.052 613.806,726.385 613.5,723.5C 613.723,716.16 614.056,708.827 614.5,701.5C 615.434,700.432 615.768,699.099 615.5,697.5C 613.585,697.216 611.919,697.549 610.5,698.5C 603.019,701.826 595.186,703.826 587,704.5C 583.742,704.507 580.575,704.007 577.5,703C 575.078,701.112 575.078,699.112 577.5,697C 580.215,695.092 583.215,693.759 586.5,693C 596.057,691.642 605.557,691.142 615,691.5C 621.688,664.518 626.188,637.184 628.5,609.5C 629.473,607.052 629.806,604.385 629.5,601.5C 627.901,601.232 626.568,601.566 625.5,602.5C 616.869,608.821 607.869,614.654 598.5,620C 594.572,621.325 590.572,621.658 586.5,621C 592.868,606.45 603.868,598.283 619.5,596.5C 622.833,596.5 626.167,596.5 629.5,596.5C 629.5,594.833 629.5,593.167 629.5,591.5C 628.782,579.141 627.616,566.808 626,554.5C 616.502,566.571 604.502,574.904 590,579.5C 596.298,562.726 608.464,553.059 626.5,550.5C 625.924,539.115 624.757,527.781 623,516.5C 615.904,521.592 609.404,527.426 603.5,534C 600.52,536.324 597.187,537.824 593.5,538.5C 590.918,538.975 588.918,538.308 587.5,536.5C 590.886,525.946 597.886,518.779 608.5,515C 612.09,513.47 615.757,512.136 619.5,511C 620.059,510.275 620.392,509.442 620.5,508.5C 617.501,497.169 614.501,485.836 611.5,474.5C 608.23,476.267 605.397,478.6 603,481.5C 599.067,490.759 593.567,498.925 586.5,506C 585.255,506.791 583.922,507.291 582.5,507.5C 581.517,503.702 581.183,499.702 581.5,495.5C 581.937,490.292 583.77,485.625 587,481.5C 593.736,474.932 600.236,468.265 606.5,461.5C 604.432,455.462 602.265,449.462 600,443.5C 595.141,448.724 590.641,454.224 586.5,460C 584.091,461.707 581.425,462.54 578.5,462.5C 579.71,449.702 586.043,440.702 597.5,435.5C 594.753,426.928 592.42,418.261 590.5,409.5C 590.719,408.325 590.386,407.325 589.5,406.5C 588.893,406.624 588.56,406.957 588.5,407.5C 585.769,413.513 582.936,419.513 580,425.5C 578.143,428.2 575.643,429.866 572.5,430.5C 570.631,428.365 569.964,425.698 570.5,422.5C 572.447,412.953 577.614,405.62 586,400.5C 586.167,398.667 586.333,396.833 586.5,395C 585.754,389.423 584.587,383.923 583,378.5C 580.29,382.753 577.457,386.92 574.5,391C 573.365,391.749 572.365,391.583 571.5,390.5C 570.833,388.833 570.167,387.167 569.5,385.5C 572.423,380.409 575.923,375.742 580,371.5C 580.958,368.925 581.458,366.259 581.5,363.5C 580.828,358.478 579.995,353.478 579,348.5C 578.094,321.117 576.427,293.784 574,266.5C 572.066,252.697 567.732,239.697 561,227.5C 551.721,213.726 541.888,200.393 531.5,187.5C 531.842,186.662 532.508,186.328 533.5,186.5 Z"/></g>
<g><path style="opacity:0.408" fill="#b4d08b" d="M 258.5,194.5 C 257.662,194.842 257.328,195.508 257.5,196.5C 256.399,195.152 255.399,193.652 254.5,192C 256.412,191.721 257.746,192.554 258.5,194.5 Z"/></g>
<g><path style="opacity:0.999" fill="#85b548" d="M 1578.5,319.5 C 1580.44,321.163 1582.77,321.829 1585.5,321.5C 1638.63,335.478 1682.79,363.478 1718,405.5C 1738,430.134 1755,456.801 1769,485.5C 1769.86,488.551 1769.19,491.217 1767,493.5C 1719.17,524.667 1671.33,555.833 1623.5,587C 1615.05,588.935 1610.05,585.602 1608.5,577C 1610.17,567.34 1611.83,557.673 1613.5,548C 1613.37,546.373 1612.87,544.873 1612,543.5C 1593.55,519.04 1570.38,500.54 1542.5,488C 1503.34,474.135 1465.01,476.135 1427.5,494C 1401.2,509.244 1394.36,530.744 1407,558.5C 1416.69,573.088 1429.19,584.588 1444.5,593C 1459.28,601.721 1474.61,609.388 1490.5,616C 1540.61,634.389 1589.28,656.056 1636.5,681C 1677.55,702.697 1714.05,730.53 1746,764.5C 1787.88,812.831 1803.88,868.831 1794,932.5C 1786.89,1007.23 1754.73,1068.4 1697.5,1116C 1661.01,1142.29 1620.34,1158.62 1575.5,1165C 1499.96,1176.1 1426.96,1167.1 1356.5,1138C 1307.09,1116.92 1268.59,1083.42 1241,1037.5C 1233.7,1024.1 1227.87,1010.1 1223.5,995.5C 1224.05,993.39 1224.89,991.39 1226,989.5C 1273.5,952 1321,914.5 1368.5,877C 1382.9,868.799 1389.74,872.965 1389,889.5C 1387.78,899.715 1386.28,909.882 1384.5,920C 1398.55,946.548 1418.55,967.382 1444.5,982.5C 1444.13,985.022 1444.96,987.022 1447,988.5C 1449.57,987.504 1452.41,987.504 1455.5,988.5C 1492.36,1004.1 1528.7,1002.93 1564.5,985C 1594.8,966.147 1606.97,938.98 1601,903.5C 1596.89,890.618 1590.23,879.284 1581,869.5C 1558.73,849.599 1533.56,834.099 1505.5,823C 1482.17,814 1458.83,805 1435.5,796C 1421.94,790.101 1408.6,783.935 1395.5,777.5C 1393.81,773.738 1391.14,772.405 1387.5,773.5C 1344.79,752.896 1306.29,726.229 1272,693.5C 1215.65,633.729 1198.65,564.062 1221,484.5C 1238.77,432.795 1270.93,392.628 1317.5,364C 1365.25,335.53 1416.91,318.863 1472.5,314C 1493.48,312.507 1514.48,312.174 1535.5,313C 1550.03,314.004 1564.37,316.171 1578.5,319.5 Z"/></g>
<g><path style="opacity:0.999" fill="#85b548" d="M 3636.5,332.5 C 3636.76,334.564 3637.93,335.897 3640,336.5C 3641.36,335.62 3642.86,335.286 3644.5,335.5C 3711.36,360.869 3753.86,408.202 3772,477.5C 3781.62,518.285 3785.28,559.618 3783,601.5C 3781.83,606.667 3778.67,609.833 3773.5,611C 3716.17,611.667 3658.83,611.667 3601.5,611C 3593.19,608.735 3590.02,603.569 3592,595.5C 3598.67,587.5 3606,580.167 3614,573.5C 3602.32,515.493 3566.82,484.993 3507.5,482C 3489.06,481.052 3470.72,482.052 3452.5,485C 3436.78,488.031 3422.78,494.531 3410.5,504.5C 3406.22,504.107 3404.55,505.774 3405.5,509.5C 3388.94,528.651 3379.44,550.984 3377,576.5C 3376.04,584.809 3375.38,593.142 3375,601.5C 3374.33,693.167 3374.33,784.833 3375,876.5C 3377.84,963.682 3422.68,1004.18 3509.5,998C 3559.1,995.39 3591.6,970.557 3607,923.5C 3613.2,900.93 3616.03,877.93 3615.5,854.5C 3581.17,854.333 3546.83,854.5 3512.5,855C 3505.13,862.04 3497.46,868.706 3489.5,875C 3482.91,876.358 3477.41,874.525 3473,869.5C 3471.34,815.249 3471.01,760.916 3472,706.5C 3473.32,701.352 3476.48,698.018 3481.5,696.5C 3580.57,695.857 3679.57,696.523 3778.5,698.5C 3780.98,700.12 3782.48,702.453 3783,705.5C 3783.67,776.833 3783.67,848.167 3783,919.5C 3779.45,1071.39 3701.95,1153.89 3550.5,1167C 3495.02,1172.45 3440.02,1169.45 3385.5,1158C 3290.04,1136.54 3232.21,1078.04 3212,982.5C 3209.07,967.289 3207.07,951.956 3206,936.5C 3204.39,814.508 3204.06,692.508 3205,570.5C 3204.61,533.634 3209.94,497.634 3221,462.5C 3242.68,400.158 3284.51,357.658 3346.5,335C 3379.2,323.394 3412.86,316.394 3447.5,314C 3504.5,309.022 3560.84,313.022 3616.5,326C 3623.29,327.876 3629.96,330.042 3636.5,332.5 Z"/></g>
<g><path style="opacity:0.553" fill="#acca80" d="M 1578.5,319.5 C 1581.07,319.721 1583.4,320.388 1585.5,321.5C 1582.77,321.829 1580.44,321.163 1578.5,319.5 Z"/></g>
<g><path style="opacity:0.999" fill="#85b548" d="M 2379.5,973.5 C 2349.01,972.167 2318.17,971.5 2287,971.5C 2256,971.5 2225.16,971.833 2194.5,972.5C 2187.63,1000.31 2180.3,1027.97 2172.5,1055.5C 2170.72,1056.11 2169.38,1057.28 2168.5,1059C 2169.42,1061.04 2169.76,1063.21 2169.5,1065.5C 2165.38,1083.15 2160.71,1100.65 2155.5,1118C 2162.7,1124.86 2169.53,1132.03 2176,1139.5C 2178.6,1146.95 2176.44,1152.45 2169.5,1156C 2103.83,1156.67 2038.17,1156.67 1972.5,1156C 1965.09,1151.3 1963.59,1145.14 1968,1137.5C 1975.13,1130.55 1981.8,1123.21 1988,1115.5C 2055.33,865.5 2122.67,615.5 2190,365.5C 2190.67,363.833 2190.67,362.167 2190,360.5C 2185.67,353.167 2181.33,345.833 2177,338.5C 2175.23,331.874 2177.4,327.04 2183.5,324C 2252.83,323.333 2322.17,323.333 2391.5,324C 2397.91,327.323 2400.07,332.489 2398,339.5C 2393.58,346.672 2388.91,353.672 2384,360.5C 2383.85,364.913 2384.52,369.246 2386,373.5C 2452.67,620.833 2519.33,868.167 2586,1115.5C 2593.31,1123.14 2600.98,1130.48 2609,1137.5C 2611.99,1145.19 2610.16,1151.36 2603.5,1156C 2536.08,1156.99 2468.75,1156.66 2401.5,1155C 2396.34,1149.04 2396.17,1142.87 2401,1136.5C 2407.35,1130.32 2413.51,1123.99 2419.5,1117.5C 2405.85,1069.58 2392.52,1021.58 2379.5,973.5 Z M 2253.5,748.5 C 2254.74,746.786 2255.41,744.786 2255.5,742.5C 2262.97,715.622 2269.97,688.622 2276.5,661.5C 2278.41,657.103 2279.74,652.437 2280.5,647.5C 2282.42,640.895 2284.26,634.229 2286,627.5C 2304.02,690.046 2321.52,752.713 2338.5,815.5C 2304.5,815.5 2270.5,815.5 2236.5,815.5C 2242.32,793.203 2247.99,770.869 2253.5,748.5 Z"/></g>
<g><path style="opacity:0.999" fill="#85b549" d="M 2809.5,323.5 C 2875.17,323.333 2940.83,323.5 3006.5,324C 3013.81,327.46 3015.98,332.96 3013,340.5C 3006.36,348.136 2999.36,355.47 2992,362.5C 2991.33,614.167 2991.33,865.833 2992,1117.5C 2999,1124.5 3006,1131.5 3013,1138.5C 3015.58,1146.08 3013.42,1151.91 3006.5,1156C 2940.83,1156.67 2875.17,1156.67 2809.5,1156C 2803.46,1151.45 2801.96,1145.62 2805,1138.5C 2811.33,1131.5 2817.67,1124.5 2824,1117.5C 2824.67,865.833 2824.67,614.167 2824,362.5C 2817.33,354.5 2810.67,346.5 2804,338.5C 2801.58,331.924 2803.41,326.924 2809.5,323.5 Z"/></g>
<g><path style="opacity:0.999" fill="#85b548" d="M 4480.5,692.5 C 4480.41,695.152 4481.08,697.485 4482.5,699.5C 4520.28,837.962 4557.78,976.629 4595,1115.5C 4602.31,1123.14 4609.98,1130.48 4618,1137.5C 4621,1145.17 4619.16,1151.34 4612.5,1156C 4545.08,1156.99 4477.75,1156.66 4410.5,1155C 4405.34,1149.04 4405.17,1142.87 4410,1136.5C 4416.35,1130.32 4422.51,1123.99 4428.5,1117.5C 4414.7,1069.28 4401.36,1020.95 4388.5,972.5C 4326.83,972.5 4265.17,972.5 4203.5,972.5C 4191.2,1021.2 4178.2,1069.7 4164.5,1118C 4171,1124.5 4177.5,1131 4184,1137.5C 4187.96,1145.49 4186.13,1151.66 4178.5,1156C 4112.83,1156.67 4047.17,1156.67 3981.5,1156C 3974.06,1151.38 3972.56,1145.21 3977,1137.5C 3984.41,1130.77 3991.07,1123.43 3997,1115.5C 4064.33,865.5 4131.67,615.5 4199,365.5C 4199.67,363.833 4199.67,362.167 4199,360.5C 4194.67,353.167 4190.33,345.833 4186,338.5C 4184.16,331.346 4186.66,326.513 4193.5,324C 4262.5,323.333 4331.5,323.333 4400.5,324C 4406.91,327.323 4409.07,332.489 4407,339.5C 4402.91,346.007 4398.58,352.34 4394,358.5C 4392.63,360.695 4392.29,363.029 4393,365.5C 4422.64,474.395 4451.81,583.395 4480.5,692.5 Z M 4283.5,669.5 C 4285.07,666.093 4286.07,662.427 4286.5,658.5C 4289.46,648.328 4292.3,637.995 4295,627.5C 4312.64,690.075 4330.47,752.575 4348.5,815C 4314.16,815.833 4279.83,815.667 4245.5,814.5C 4258.64,766.276 4271.31,717.943 4283.5,669.5 Z"/></g>
<g><path style="opacity:0.885" fill="#a2c571" d="M 3636.5,332.5 C 3639.4,333.129 3642.06,334.129 3644.5,335.5C 3642.86,335.286 3641.36,335.62 3640,336.5C 3637.93,335.897 3636.76,334.564 3636.5,332.5 Z"/></g>
<g><path style="opacity:0.243" fill="#c5daa5" d="M 588.5,407.5 C 588.56,406.957 588.893,406.624 589.5,406.5C 590.386,407.325 590.719,408.325 590.5,409.5C 589.833,408.833 589.167,408.167 588.5,407.5 Z"/></g>
<g><path style="opacity:0.318" fill="#b2cf89" d="M 570.5,422.5 C 569.964,425.698 570.631,428.365 572.5,430.5C 571.791,431.404 570.791,431.737 569.5,431.5C 569.19,428.287 569.523,425.287 570.5,422.5 Z"/></g>
<g><path style="opacity:0.086" fill="#d1e1b5" d="M 277.5,494.5 C 278.209,493.596 279.209,493.263 280.5,493.5C 280.818,498.032 280.485,502.366 279.5,506.5C 280.089,502.029 279.423,498.029 277.5,494.5 Z"/></g>
<g><path style="opacity:0.318" fill="#b2cf8a" d="M 581.5,495.5 C 581.183,499.702 581.517,503.702 582.5,507.5C 582.44,508.043 582.107,508.376 581.5,508.5C 580.189,504.016 580.189,499.683 581.5,495.5 Z"/></g>
<g><path style="opacity:1" fill="#a2c471" d="M 3410.5,504.5 C 3409.17,506.5 3407.5,508.167 3405.5,509.5C 3404.55,505.774 3406.22,504.107 3410.5,504.5 Z"/></g>
<g><path style="opacity:0.447" fill="#caddac" d="M 275.5,528.5 C 274.947,530.552 273.947,530.885 272.5,529.5C 273.609,529.443 274.609,529.11 275.5,528.5 Z"/></g>
<g><path style="opacity:0.298" fill="#bbd496" d="M 587.5,536.5 C 588.918,538.308 590.918,538.975 593.5,538.5C 591.393,539.468 589.059,539.802 586.5,539.5C 586.263,538.209 586.596,537.209 587.5,536.5 Z"/></g>
<g><path style="opacity:0.212" fill="#d7e5be" d="M 266.5,568.5 C 267.209,567.596 268.209,567.263 269.5,567.5C 269.5,568.833 269.5,570.167 269.5,571.5C 268.9,570.1 267.9,569.1 266.5,568.5 Z"/></g>
<g><path style="opacity:0.212" fill="#c6daa5" d="M 629.5,591.5 C 629.5,593.167 629.5,594.833 629.5,596.5C 626.167,596.5 622.833,596.5 619.5,596.5C 622.287,595.523 625.287,595.19 628.5,595.5C 628.232,593.901 628.566,592.568 629.5,591.5 Z"/></g>
<g><path style="opacity:0.4" fill="#b6d18f" d="M 625.5,602.5 C 626.568,601.566 627.901,601.232 629.5,601.5C 629.806,604.385 629.473,607.052 628.5,609.5C 628.5,607.167 628.5,604.833 628.5,602.5C 627.5,602.5 626.5,602.5 625.5,602.5 Z"/></g>
<g><path style="opacity:0.349" fill="#d4e3b9" d="M 209.5,618.5 C 208.081,619.451 206.415,619.784 204.5,619.5C 204.823,626.022 204.49,632.355 203.5,638.5C 203.5,631.833 203.5,625.167 203.5,618.5C 205.5,618.5 207.5,618.5 209.5,618.5 Z"/></g>
<g><path style="opacity:0.957" fill="#8dba55" d="M 619.5,633.5 C 620.461,635.265 620.795,637.265 620.5,639.5C 617.98,645.449 613.647,649.615 607.5,652C 600.816,655.141 593.816,656.141 586.5,655C 588.782,650.384 592.116,646.717 596.5,644C 604.407,640.978 612.074,637.478 619.5,633.5 Z"/></g>
<g><path style="opacity:0.318" fill="#bed69a" d="M 619.5,633.5 C 619.56,632.957 619.893,632.624 620.5,632.5C 621.797,634.973 621.797,637.307 620.5,639.5C 620.795,637.265 620.461,635.265 619.5,633.5 Z"/></g>
<g><path style="opacity:1" fill="#9bc168" d="M 2280.5,647.5 C 2279.74,652.437 2278.41,657.103 2276.5,661.5C 2275.5,659.989 2274.83,658.322 2274.5,656.5C 2276.94,656.881 2277.61,656.214 2276.5,654.5C 2278.98,652.564 2278.98,650.564 2276.5,648.5C 2277.86,648.212 2279.19,647.879 2280.5,647.5 Z"/></g>
<g><path style="opacity:0.329" fill="#c5daa4" d="M 205.5,653.5 C 206.391,654.11 207.391,654.443 208.5,654.5C 207.053,655.885 206.053,655.552 205.5,653.5 Z"/></g>
<g><path style="opacity:1" fill="#a0c46e" d="M 4286.5,658.5 C 4286.07,662.427 4285.07,666.093 4283.5,669.5C 4283.34,666.482 4283.5,663.482 4284,660.5C 4284.42,659.244 4285.25,658.577 4286.5,658.5 Z"/></g>
<g><path style="opacity:0.22" fill="#b4d08c" d="M 264.5,664.5 C 265.919,663.549 267.585,663.216 269.5,663.5C 269.5,664.833 269.5,666.167 269.5,667.5C 268.596,666.791 268.263,665.791 268.5,664.5C 267.167,664.5 265.833,664.5 264.5,664.5 Z"/></g>
<g><path style="opacity:0.329" fill="#a1c472" d="M 3481.5,696.5 C 3579,695.334 3676.67,695.168 3774.5,696C 3776.07,696.608 3777.4,697.442 3778.5,698.5C 3679.57,696.523 3580.57,695.857 3481.5,696.5 Z"/></g>
<g><path style="opacity:0.082" fill="#c6dba6" d="M 610.5,698.5 C 611.919,697.549 613.585,697.216 615.5,697.5C 615.768,699.099 615.434,700.432 614.5,701.5C 614.5,700.5 614.5,699.5 614.5,698.5C 613.167,698.5 611.833,698.5 610.5,698.5 Z"/></g>
<g><path style="opacity:0.443" fill="#aac97d" d="M 4480.5,692.5 C 4481.92,694.515 4482.59,696.848 4482.5,699.5C 4481.08,697.485 4480.41,695.152 4480.5,692.5 Z"/></g>
<g><path style="opacity:0.973" fill="#8eba56" d="M 602.5,727.5 C 605.385,727.194 608.052,727.527 610.5,728.5C 610.141,730.371 609.141,731.871 607.5,733C 596.046,741.724 583.379,744.224 569.5,740.5C 573.633,733.923 579.633,730.09 587.5,729C 592.448,727.95 597.448,727.45 602.5,727.5 Z"/></g>
<g><path style="opacity:0.063" fill="#d8e5c0" d="M 232.5,729.5 C 243.674,728.176 255.007,728.176 266.5,729.5C 266.376,730.107 266.043,730.44 265.5,730.5C 254.679,729.505 243.679,729.172 232.5,729.5 Z"/></g>
<g><path style="opacity:0.349" fill="#b4d08c" d="M 613.5,723.5 C 613.806,726.385 613.473,729.052 612.5,731.5C 612.657,730.127 612.49,728.793 612,727.5C 611.617,728.056 611.117,728.389 610.5,728.5C 608.052,727.527 605.385,727.194 602.5,727.5C 605.625,726.521 608.958,726.187 612.5,726.5C 612.263,725.209 612.596,724.209 613.5,723.5 Z"/></g>
<g><path style="opacity:0.875" fill="#abc97e" d="M 2255.5,742.5 C 2255.41,744.786 2254.74,746.786 2253.5,748.5C 2252.09,745.884 2252.75,743.884 2255.5,742.5 Z"/></g>
<g><path style="opacity:0.972" fill="#8fba57" d="M 604.5,754.5 C 605.376,754.369 606.043,754.702 606.5,755.5C 594.409,774.254 577.409,781.421 555.5,777C 560.467,771.512 566.467,767.512 573.5,765C 583.968,761.567 594.301,758.067 604.5,754.5 Z"/></g>
<g><path style="opacity:0.863" fill="#a1c471" d="M 1395.5,777.5 C 1392.52,776.674 1389.85,775.341 1387.5,773.5C 1391.14,772.405 1393.81,773.738 1395.5,777.5 Z"/></g>
<g><path style="opacity:0.967" fill="#8eba56" d="M 241.5,774.5 C 249.84,774.334 258.173,774.5 266.5,775C 257.906,784.753 247.239,788.086 234.5,785C 231.325,783.005 229.658,780.172 229.5,776.5C 233.705,776.283 237.705,775.617 241.5,774.5 Z"/></g>
<g><path style="opacity:0.964" fill="#91bb5a" d="M 592.5,796.5 C 593.167,797.167 593.833,797.833 594.5,798.5C 592.88,800.984 590.547,802.484 587.5,803C 578.592,805.342 569.925,804.675 561.5,801C 559.081,799.491 558.081,797.325 558.5,794.5C 569.914,793.506 581.247,794.173 592.5,796.5 Z"/></g>
<g><path style="opacity:0.098" fill="#c5daa5" d="M 592.5,796.5 C 593.675,796.281 594.675,796.614 595.5,797.5C 595.376,798.107 595.043,798.44 594.5,798.5C 593.833,797.833 593.167,797.167 592.5,796.5 Z"/></g>
<g><path style="opacity:0.982" fill="#8ab750" d="M 1090.5,1112.5 C 1090.5,1113.17 1090.17,1113.5 1089.5,1113.5C 1003.11,1099.15 919.445,1075.32 838.5,1042C 806.134,1028.42 776.301,1010.92 749,989.5C 739.43,995.704 729.597,1001.54 719.5,1007C 709.029,1011.87 698.029,1014.37 686.5,1014.5C 682.958,1014.81 679.625,1014.48 676.5,1013.5C 740.363,987.071 774.197,939.071 778,869.5C 779.046,855.518 779.546,841.518 779.5,827.5C 780.069,823.671 779.402,820.337 777.5,817.5C 743.12,808.048 710.454,812.214 679.5,830C 656.594,843.903 635.094,859.737 615,877.5C 617.954,862.927 624.621,850.26 635,839.5C 672.769,804.58 717.269,790.747 768.5,798C 776.004,799.376 783.337,801.376 790.5,804C 792.099,805.786 792.933,807.953 793,810.5C 794.338,844.128 790.338,877.128 781,909.5C 773.967,933.254 766.967,956.921 760,980.5C 768.348,987.842 777.515,994.008 787.5,999C 839.106,1027.13 893.772,1046.8 951.5,1058C 999.459,1072.15 1045.79,1090.32 1090.5,1112.5 Z"/></g>
<g><path style="opacity:0.981" fill="#8ab750" d="M 240.5,978.5 C 239.432,979.434 238.099,979.768 236.5,979.5C 205.461,974.954 181.294,959.621 164,933.5C 146.453,905.41 134.786,875.076 129,842.5C 150.902,826.233 175.402,819.733 202.5,823C 206.419,823.75 210.085,825.083 213.5,827C 208.875,830.099 203.875,832.432 198.5,834C 184.414,837.355 170.414,841.022 156.5,845C 152.17,846.161 148.503,848.327 145.5,851.5C 161.036,892.512 184.37,928.345 215.5,959C 223.447,966.127 231.78,972.627 240.5,978.5 Z"/></g>
<g><path style="opacity:0.97" fill="#8dba55" d="M 550.5,824.5 C 564.6,825.014 578.6,826.514 592.5,829C 589.103,833.704 584.437,836.37 578.5,837C 567.715,838.025 557.049,837.358 546.5,835C 543.708,834.103 541.041,832.937 538.5,831.5C 541.668,827.588 545.668,825.254 550.5,824.5 Z"/></g>
<g><path style="opacity:0.016" fill="#d4e3ba" d="M 777.5,817.5 C 779.402,820.337 780.069,823.671 779.5,827.5C 778.763,824.275 778.097,820.941 777.5,817.5 Z"/></g>
<g><path style="opacity:0.974" fill="#8bb852" d="M 229.5,887.5 C 228.448,889.256 226.781,889.923 224.5,889.5C 222.507,887.533 220.507,885.533 218.5,883.5C 218.167,884.167 217.833,884.833 217.5,885.5C 219.388,888.937 220.388,892.604 220.5,896.5C 213.886,895.105 208.386,891.772 204,886.5C 200.333,881.167 196.667,875.833 193,870.5C 189.419,866.248 185.252,862.748 180.5,860C 190.756,855.172 200.756,855.839 210.5,862C 219.885,868.287 226.218,876.787 229.5,887.5 Z"/></g>
<g><path style="opacity:0.976" fill="#8db955" d="M 707.5,856.5 C 713.176,856.334 718.843,856.501 724.5,857C 729.929,857.753 734.929,859.587 739.5,862.5C 721.064,867.734 702.564,872.734 684,877.5C 683.5,877 683,876.5 682.5,876C 686.873,864.465 695.206,857.965 707.5,856.5 Z"/></g>
<g><path style="opacity:0.977" fill="#8db954" d="M 509.5,875.5 C 522.071,877.188 534.405,880.021 546.5,884C 555.124,885.131 563.79,885.798 572.5,886C 562.805,895.679 551.138,899.012 537.5,896C 524.73,894.125 514.73,887.958 507.5,877.5C 508.243,876.818 508.909,876.151 509.5,875.5 Z"/></g>
<g><path style="opacity:0.968" fill="#8eba56" d="M 691.5,881.5 C 698.331,880.905 703.831,883.238 708,888.5C 708.483,889.448 708.649,890.448 708.5,891.5C 696.931,892.854 685.598,895.354 674.5,899C 668.072,900.324 666.905,898.49 671,893.5C 676.494,887.01 683.327,883.01 691.5,881.5 Z"/></g>
<g><path style="opacity:0.251" fill="#bdd699" d="M 229.5,887.5 C 230.404,888.209 230.737,889.209 230.5,890.5C 228.265,890.795 226.265,890.461 224.5,889.5C 226.781,889.923 228.448,889.256 229.5,887.5 Z"/></g>
<g><path style="opacity:0.968" fill="#8db955" d="M 350.5,888.5 C 351.993,889.312 352.66,890.645 352.5,892.5C 349.223,906.274 340.557,914.441 326.5,917C 320.326,917.95 314.326,917.617 308.5,916C 311.203,912.962 314.203,910.295 317.5,908C 326.653,903.923 335.653,899.59 344.5,895C 346.706,892.963 348.706,890.797 350.5,888.5 Z"/></g>
<g><path style="opacity:0.971" fill="#8eba55" d="M 504.5,899.5 C 508.846,899.334 513.179,899.501 517.5,900C 529.984,904.272 542.651,907.939 555.5,911C 551.817,914.34 547.484,916.34 542.5,917C 525.668,918.445 511.002,913.611 498.5,902.5C 500.594,901.482 502.594,900.482 504.5,899.5 Z"/></g>
<g><path style="opacity:0.976" fill="#8eba55" d="M 670.5,905.5 C 678.893,905.17 687.227,905.67 695.5,907C 700.426,908.13 704.759,910.296 708.5,913.5C 701.723,915.853 694.723,917.353 687.5,918C 675.527,919.372 663.527,919.706 651.5,919C 655.768,911.561 662.102,907.061 670.5,905.5 Z"/></g>
<g><path style="opacity:0.979" fill="#8bb852" d="M 642.5,1016.5 C 641.549,1015.08 641.216,1013.41 641.5,1011.5C 643.601,980.908 636.768,952.575 621,926.5C 616.533,921.032 611.7,915.865 606.5,911C 615.511,909.919 623.511,912.252 630.5,918C 650.46,939.319 657.96,964.486 653,993.5C 651.111,1002.04 647.611,1009.71 642.5,1016.5 Z"/></g>
<g><path style="opacity:0.149" fill="#bcd498" d="M 2194.5,972.5 C 2225.16,971.833 2256,971.5 2287,971.5C 2318.17,971.5 2349.01,972.167 2379.5,973.5C 2317.9,972.504 2256.24,972.171 2194.5,972.5 Z"/></g>
<g><path style="opacity:0.145" fill="#c7dba7" d="M 240.5,978.5 C 241.473,978.987 242.473,979.487 243.5,980C 240.961,980.796 238.628,980.629 236.5,979.5C 238.099,979.768 239.432,979.434 240.5,978.5 Z"/></g>
<g><path style="opacity:0.898" fill="#99c065" d="M 1444.5,982.5 C 1448.36,984.262 1452.03,986.262 1455.5,988.5C 1452.41,987.504 1449.57,987.504 1447,988.5C 1444.96,987.022 1444.13,985.022 1444.5,982.5 Z"/></g>
<g><path style="opacity:0.165" fill="#c7dba7" d="M 551.5,990.5 C 556.015,989.188 560.682,989.188 565.5,990.5C 565.376,991.107 565.043,991.44 564.5,991.5C 560.366,990.515 556.032,990.182 551.5,990.5 Z"/></g>
<g><path style="opacity:0.949" fill="#90bb59" d="M 551.5,990.5 C 556.032,990.182 560.366,990.515 564.5,991.5C 552.752,998.573 540.752,1005.24 528.5,1011.5C 530.594,998.875 538.261,991.875 551.5,990.5 Z"/></g>
<g><path style="opacity:0.986" fill="#89b74e" d="M 254.5,1016.5 C 255.053,1018.55 256.053,1018.89 257.5,1017.5C 258.592,1010.37 255.592,1005.71 248.5,1003.5C 247.167,1002.83 245.833,1002.17 244.5,1001.5C 250.879,998.724 257.212,998.891 263.5,1002C 273.989,1013.1 280.489,1026.26 283,1041.5C 286.944,1057.88 288.778,1074.38 288.5,1091C 279.614,1094.94 270.614,1098.61 261.5,1102C 254.162,1104.37 247.162,1103.71 240.5,1100C 242.305,1097.6 244.638,1095.93 247.5,1095C 254.33,1094.03 260.997,1092.53 267.5,1090.5C 245.796,1076.39 239.796,1057.39 249.5,1033.5C 242.062,1029.9 234.729,1026.07 227.5,1022C 220.959,1019.97 214.292,1018.47 207.5,1017.5C 210.332,1012.4 214.665,1009.24 220.5,1008C 228.301,1007.1 235.967,1007.77 243.5,1010C 247.858,1011.17 251.525,1013.34 254.5,1016.5 Z"/></g>
<g><path style="opacity:0.063" fill="#c6dba6" d="M 244.5,1001.5 C 245.833,1002.17 247.167,1002.83 248.5,1003.5C 246.143,1003.66 243.81,1003.5 241.5,1003C 242.527,1002.49 243.527,1001.99 244.5,1001.5 Z"/></g>
<g><path style="opacity:0.99" fill="#88b74e" d="M 624.5,1016.5 C 619.167,1017.17 613.833,1017.83 608.5,1018.5C 602.743,1018.66 601.743,1020.49 605.5,1024C 611.022,1025.62 616.355,1027.62 621.5,1030C 615.481,1032.34 612.148,1036.68 611.5,1043C 611.415,1046.8 612.748,1047.47 615.5,1045C 617.894,1043.05 619.394,1040.55 620,1037.5C 621.881,1042.25 621.547,1046.92 619,1051.5C 603.641,1071.77 583.141,1083.1 557.5,1085.5C 548.661,1085.08 540.994,1081.91 534.5,1076C 529.346,1073.09 524.012,1070.75 518.5,1069C 518.979,1063.91 519.145,1058.74 519,1053.5C 520.052,1051.19 521.885,1049.86 524.5,1049.5C 524.746,1051.22 524.746,1053.22 524.5,1055.5C 530.695,1056.66 534.861,1054.32 537,1048.5C 537.74,1043.39 538.907,1038.39 540.5,1033.5C 538.405,1032.77 536.572,1033.44 535,1035.5C 533.513,1038.48 532.179,1041.48 531,1044.5C 528.843,1038.05 529.176,1031.72 532,1025.5C 541.99,1012.75 555.157,1005.58 571.5,1004C 588.832,1000.92 605.165,1003.59 620.5,1012C 622.041,1013.37 623.375,1014.87 624.5,1016.5 Z M 558.5,1024.5 C 568.712,1023.28 576.712,1026.78 582.5,1035C 573.155,1038.74 563.489,1040.4 553.5,1040C 551.497,1037.21 550.163,1034.04 549.5,1030.5C 552.047,1027.73 555.047,1025.73 558.5,1024.5 Z"/></g>
<g><path style="opacity:0.088" fill="#d0e1b4" d="M 676.5,1013.5 C 679.625,1014.48 682.958,1014.81 686.5,1014.5C 682.689,1015.65 678.689,1015.81 674.5,1015C 675.044,1014.28 675.711,1013.78 676.5,1013.5 Z"/></g>
<g><path style="opacity:0.235" fill="#bed69b" d="M 641.5,1011.5 C 641.216,1013.41 641.549,1015.08 642.5,1016.5C 642.217,1017.29 641.717,1017.96 641,1018.5C 640.204,1015.96 640.371,1013.63 641.5,1011.5 Z"/></g>
<g><path style="opacity:0.133" fill="#c4daa2" d="M 254.5,1016.5 C 255.391,1017.11 256.391,1017.44 257.5,1017.5C 256.053,1018.89 255.053,1018.55 254.5,1016.5 Z"/></g>
<g><path style="opacity:0.249" fill="#bbd496" d="M 624.5,1016.5 C 625.289,1016.78 625.956,1017.28 626.5,1018C 620.509,1018.5 614.509,1018.67 608.5,1018.5C 613.833,1017.83 619.167,1017.17 624.5,1016.5 Z"/></g>
<g><path style="opacity:0.976" fill="#8db954" d="M 680.5,1037.5 C 688.359,1046.54 694.193,1056.87 698,1068.5C 703.414,1085.41 706.914,1102.41 708.5,1119.5C 692.986,1104.47 683.819,1086.14 681,1064.5C 679.536,1055.45 679.369,1046.45 680.5,1037.5 Z"/></g>
<g><path style="opacity:0.212" fill="#c2d8a1" d="M 390.5,1057.5 C 391.209,1056.6 392.209,1056.26 393.5,1056.5C 393.737,1057.79 393.404,1058.79 392.5,1059.5C 392.5,1058.17 391.833,1057.5 390.5,1057.5 Z"/></g>
<g><path style="opacity:0.93" fill="#a0c36e" d="M 2172.5,1055.5 C 2172.1,1059.12 2171.1,1062.45 2169.5,1065.5C 2169.76,1063.21 2169.42,1061.04 2168.5,1059C 2169.38,1057.28 2170.72,1056.11 2172.5,1055.5 Z"/></g>
<g><path style="opacity:0.974" fill="#8bb852" d="M 390.5,1057.5 C 391.833,1057.5 392.5,1058.17 392.5,1059.5C 389.721,1066.78 385.888,1073.44 381,1079.5C 362.961,1098.6 345.628,1118.27 329,1138.5C 313.832,1159.16 301.499,1181.49 292,1205.5C 284.713,1227.32 278.046,1249.32 272,1271.5C 267.433,1257.55 267.433,1243.55 272,1229.5C 275.803,1218.42 279.803,1207.42 284,1196.5C 287.842,1185.12 289.175,1173.45 288,1161.5C 285.521,1148.94 284.021,1136.27 283.5,1123.5C 283.21,1116.35 284.043,1109.35 286,1102.5C 292.694,1109.55 297.027,1117.89 299,1127.5C 300.666,1138.48 300.999,1149.48 300,1160.5C 312.722,1143.44 325.055,1126.11 337,1108.5C 343.033,1101.64 349.199,1094.97 355.5,1088.5C 359.5,1086.5 362.5,1083.5 364.5,1079.5C 369.271,1075.23 373.938,1070.73 378.5,1066C 382.12,1062.53 386.12,1059.7 390.5,1057.5 Z"/></g>
<g><path style="opacity:0.935" fill="#8fba58" d="M 508.5,1062.5 C 509.725,1063.15 510.392,1064.32 510.5,1066C 510.333,1067.17 510.167,1068.33 510,1069.5C 505.826,1072.73 502.159,1076.4 499,1080.5C 493.352,1078.54 492.352,1075.21 496,1070.5C 499.671,1066.92 503.838,1064.26 508.5,1062.5 Z"/></g>
<g><path style="opacity:0.979" fill="#8cb954" d="M 635.5,1128.5 C 634.833,1130.17 634.167,1131.83 633.5,1133.5C 630.949,1131.42 629.116,1128.76 628,1125.5C 624.043,1107.89 625.043,1090.55 631,1073.5C 632.08,1071 633.414,1068.67 635,1066.5C 640.572,1075.02 642.572,1084.35 641,1094.5C 639.356,1105.88 637.522,1117.22 635.5,1128.5 Z"/></g>
<g><path style="opacity:0.486" fill="#aecd83" d="M 364.5,1079.5 C 362.5,1083.5 359.5,1086.5 355.5,1088.5C 358.167,1085.17 361.167,1082.17 364.5,1079.5 Z"/></g>
<g><path style="opacity:0.954" fill="#92bc5b" d="M 535.5,1098.5 C 539.852,1096.87 543.852,1097.7 547.5,1101C 559.211,1112.13 563.711,1125.63 561,1141.5C 559.729,1144.43 558.062,1147.1 556,1149.5C 556.668,1129.31 549.835,1112.31 535.5,1098.5 Z"/></g>
<g><path style="opacity:0.98" fill="#8cb953" d="M 693.5,1112.5 C 695.017,1112.51 696.184,1113.18 697,1114.5C 705.597,1129.37 707.763,1145.2 703.5,1162C 703.167,1162.5 702.833,1163 702.5,1163.5C 700.476,1161.64 698.309,1159.98 696,1158.5C 697.294,1163.74 698.628,1169.07 700,1174.5C 700.828,1179.2 700.662,1183.87 699.5,1188.5C 692.217,1182.6 688.05,1174.94 687,1165.5C 686.333,1158.17 686.333,1150.83 687,1143.5C 688.697,1133.05 690.863,1122.72 693.5,1112.5 Z"/></g>
<g><path style="opacity:0.071" fill="#d9e6c1" d="M 1090.5,1112.5 C 1091.29,1112.78 1091.96,1113.28 1092.5,1114C 1091.25,1114.74 1090.25,1114.57 1089.5,1113.5C 1090.17,1113.5 1090.5,1113.17 1090.5,1112.5 Z"/></g>
<g><path style="opacity:0.231" fill="#b0ce86" d="M 635.5,1128.5 C 635.663,1130.86 635.497,1133.19 635,1135.5C 634.283,1134.96 633.783,1134.29 633.5,1133.5C 634.167,1131.83 634.833,1130.17 635.5,1128.5 Z"/></g>
<g><path style="opacity:0.983" fill="#8ab750" d="M 1050.5,1143.5 C 1051.55,1143.35 1052.55,1143.52 1053.5,1144C 1033.8,1166.36 1015.64,1189.86 999,1214.5C 966.692,1265.37 949.359,1321.03 947,1381.5C 938.302,1347.05 937.302,1312.38 944,1277.5C 949.912,1255.01 959.578,1234.35 973,1215.5C 989.478,1193.02 1008.64,1173.19 1030.5,1156C 1037.06,1151.56 1043.73,1147.39 1050.5,1143.5 Z"/></g>
<g><path style="opacity:0.98" fill="#8db954" d="M 739.5,1202.5 C 747.001,1207.14 751.834,1213.81 754,1222.5C 756.905,1234.09 757.239,1245.75 755,1257.5C 754.577,1258.96 753.744,1259.46 752.5,1259C 749.858,1256.42 748.358,1253.26 748,1249.5C 747.667,1249.83 747.333,1250.17 747,1250.5C 746.004,1256.82 745.338,1263.16 745,1269.5C 742.968,1271.9 741.468,1271.4 740.5,1268C 739.551,1267.38 738.718,1267.55 738,1268.5C 736.772,1274.21 735.439,1279.87 734,1285.5C 729.895,1281.2 727.728,1276.03 727.5,1270C 728.564,1260.68 730.397,1251.51 733,1242.5C 733.499,1238.85 733.665,1235.18 733.5,1231.5C 736.614,1232.09 739.114,1233.76 741,1236.5C 739.781,1225.25 739.281,1213.92 739.5,1202.5 Z"/></g>
<g><path style="opacity:0.97" fill="#8eba56" d="M 674.5,1208.5 C 678.912,1210.42 681.746,1213.75 683,1218.5C 684.831,1230.17 682.998,1241.17 677.5,1251.5C 672.48,1247.47 670.146,1242.14 670.5,1235.5C 671.51,1226.44 672.844,1217.44 674.5,1208.5 Z"/></g>
<g><path style="opacity:0.985" fill="#8bb852" d="M 358.5,1233.5 C 359.49,1239.31 359.823,1245.31 359.5,1251.5C 358.422,1270.16 357.422,1288.82 356.5,1307.5C 358.691,1357.49 360.524,1407.49 362,1457.5C 365.702,1476.61 371.035,1495.28 378,1513.5C 382.7,1533.3 387.867,1552.97 393.5,1572.5C 393.61,1574.37 392.944,1575.87 391.5,1577C 388.743,1577.58 386.077,1577.25 383.5,1576C 378.667,1572.5 374.5,1568.33 371,1563.5C 360.137,1525.19 353.137,1486.19 350,1446.5C 347.462,1405.2 346.128,1363.86 346,1322.5C 345.833,1292.17 350,1262.5 358.5,1233.5 Z"/></g>
<g><path style="opacity:0.318" fill="#b9d494" d="M 358.5,1233.5 C 358.56,1232.96 358.893,1232.62 359.5,1232.5C 360.817,1238.99 360.817,1245.32 359.5,1251.5C 359.823,1245.31 359.49,1239.31 358.5,1233.5 Z"/></g>
<g><path style="opacity:0.997" fill="#86b54a" d="M 2439.5,1273.5 C 2487.84,1273.2 2536.18,1273.7 2584.5,1275C 2585.52,1277.07 2586.36,1279.24 2587,1281.5C 2587.67,1297.5 2587.67,1313.5 2587,1329.5C 2584.86,1330.77 2582.53,1331.43 2580,1331.5C 2565.5,1330.22 2551,1330.22 2536.5,1331.5C 2535.77,1415.5 2534.94,1499.5 2534,1583.5C 2532.66,1586.09 2530.49,1587.59 2527.5,1588C 2514.16,1588.72 2500.82,1588.55 2487.5,1587.5C 2484.15,1587.37 2480.98,1588.04 2478,1589.5C 2474.65,1588.82 2472.65,1586.82 2472,1583.5C 2471.67,1577.83 2471.33,1572.17 2471,1566.5C 2470.36,1488.48 2470.36,1410.48 2471,1332.5C 2469.56,1330.95 2467.73,1330.12 2465.5,1330C 2452.48,1329.67 2439.48,1329 2426.5,1328C 2424.67,1327.73 2423.17,1326.89 2422,1325.5C 2420.07,1309.2 2420.07,1292.86 2422,1276.5C 2422.75,1275.87 2423.58,1275.37 2424.5,1275C 2429.68,1274.83 2434.68,1274.33 2439.5,1273.5 Z M 2535.5,1322.5 C 2536.03,1323.72 2536.69,1324.89 2537.5,1326C 2536,1326.58 2535,1326.08 2534.5,1324.5C 2534.33,1323.51 2534.66,1322.84 2535.5,1322.5 Z"/></g>
<g><path style="opacity:0.329" fill="#a1c472" d="M 2834.5,1274.5 C 2852.66,1273.34 2871,1273.17 2889.5,1274C 2891.28,1276.14 2891.95,1278.64 2891.5,1281.5C 2890.7,1280.05 2890.2,1278.38 2890,1276.5C 2889.46,1278.27 2888.63,1278.6 2887.5,1277.5C 2887.83,1276.83 2888.17,1276.17 2888.5,1275.5C 2870.51,1274.5 2852.51,1274.17 2834.5,1274.5 Z"/></g>
<g><path style="opacity:0.998" fill="#86b54a" d="M 3314.5,1272.5 C 3337.8,1270.24 3359.46,1275.08 3379.5,1287C 3394.97,1300.11 3402.8,1316.95 3403,1337.5C 3403.62,1350.84 3403.95,1364.17 3404,1377.5C 3403.64,1379.42 3402.81,1381.09 3401.5,1382.5C 3382.81,1383.89 3364.14,1383.72 3345.5,1382C 3344.02,1380.7 3343.35,1379.03 3343.5,1377C 3344.59,1365.18 3344.76,1353.35 3344,1341.5C 3342.04,1333.58 3336.87,1329.58 3328.5,1329.5C 3321.53,1330.4 3316.69,1334.06 3314,1340.5C 3310.88,1352.54 3311.21,1364.54 3315,1376.5C 3316.79,1379.3 3318.96,1381.8 3321.5,1384C 3334.52,1391.18 3347.86,1397.85 3361.5,1404C 3373.8,1410.97 3384.97,1419.47 3395,1429.5C 3403.73,1441.36 3408.73,1454.69 3410,1469.5C 3413.58,1497.17 3411.91,1524.51 3405,1551.5C 3393.7,1573.77 3375.54,1586.27 3350.5,1589C 3336.5,1589.67 3322.5,1589.67 3308.5,1589C 3270.44,1581.94 3250.6,1559.11 3249,1520.5C 3248.33,1503.5 3248.33,1486.5 3249,1469.5C 3249.5,1468.33 3250.33,1467.5 3251.5,1467C 3270.2,1466.21 3288.86,1466.37 3307.5,1467.5C 3308.71,1476.98 3308.71,1486.48 3307.5,1496C 3308.06,1506.67 3309.56,1517.17 3312,1527.5C 3312.95,1529.57 3314.45,1531.07 3316.5,1532C 3332.41,1536.1 3341.24,1529.93 3343,1513.5C 3345.3,1500.08 3344.97,1486.75 3342,1473.5C 3339.98,1468.48 3336.82,1464.31 3332.5,1461C 3313,1450.42 3294,1439.09 3275.5,1427C 3259.42,1415.24 3250.59,1399.41 3249,1379.5C 3248.33,1363.5 3248.33,1347.5 3249,1331.5C 3251.83,1306.67 3264.67,1289.17 3287.5,1279C 3296.43,1275.99 3305.43,1273.82 3314.5,1272.5 Z M 3280.5,1478.5 C 3279.83,1478.83 3279.17,1479.17 3278.5,1479.5C 3278.71,1477.58 3279.38,1477.24 3280.5,1478.5 Z M 3294.5,1513.5 C 3295.88,1511.1 3297.55,1510.94 3299.5,1513C 3297.87,1513.49 3296.2,1513.66 3294.5,1513.5 Z M 3373.5,1511.5 C 3378.96,1514.15 3378.62,1516.49 3372.5,1518.5C 3371.89,1518.38 3371.56,1518.04 3371.5,1517.5C 3373.07,1515.89 3373.74,1513.89 3373.5,1511.5 Z M 3294.5,1513.5 C 3294.14,1515.77 3294.81,1517.6 3296.5,1519C 3294.08,1519.91 3292.75,1519.08 3292.5,1516.5C 3292.45,1514.96 3293.12,1513.96 3294.5,1513.5 Z M 3299.5,1514.5 C 3300.04,1514.56 3300.38,1514.89 3300.5,1515.5C 3299.64,1516.58 3298.64,1516.75 3297.5,1516C 3298.42,1515.72 3299.08,1515.22 3299.5,1514.5 Z M 3300.5,1528.5 C 3301.55,1528.35 3302.55,1528.52 3303.5,1529C 3302.07,1529.47 3300.9,1530.3 3300,1531.5C 3299.53,1530.42 3299.7,1529.42 3300.5,1528.5 Z M 3292.5,1552.5 C 3293.39,1551.22 3294.39,1551.22 3295.5,1552.5C 3297.12,1557.32 3295.95,1558.32 3292,1555.5C 3291.54,1554.26 3292.04,1553.42 3293.5,1553C 3293.27,1552.6 3292.94,1552.43 3292.5,1552.5 Z"/></g>
<g><path style="opacity:0.998" fill="#86b54a" d="M 2679.5,1273.5 C 2696.7,1272.76 2713.7,1274.26 2730.5,1278C 2753.78,1286.29 2768.28,1302.45 2774,1326.5C 2775.38,1336.13 2776.38,1345.79 2777,1355.5C 2778.51,1411.16 2778.84,1466.82 2778,1522.5C 2777.04,1555.46 2760.54,1575.96 2728.5,1584C 2718.64,1586.64 2708.64,1587.98 2698.5,1588C 2697.93,1586.79 2697.26,1585.63 2696.5,1584.5C 2693.37,1586.4 2690.04,1587.73 2686.5,1588.5C 2637.61,1586.45 2611.78,1561.11 2609,1512.5C 2608.33,1493.17 2608.33,1473.83 2609,1454.5C 2609.44,1452.92 2610.27,1451.59 2611.5,1450.5C 2611,1449.5 2610.5,1448.5 2610,1447.5C 2609.18,1407.82 2609.51,1368.16 2611,1328.5C 2614.24,1311.94 2622.41,1298.44 2635.5,1288C 2640.94,1283.95 2646.94,1280.95 2653.5,1279C 2662.19,1276.61 2670.85,1274.78 2679.5,1273.5 Z M 2688.5,1327.5 C 2699.33,1326.24 2706.66,1330.57 2710.5,1340.5C 2709.76,1400.8 2708.92,1461.13 2708,1521.5C 2705.33,1529.26 2699.83,1533.26 2691.5,1533.5C 2686.53,1533.19 2682.53,1531.19 2679.5,1527.5C 2677.18,1514.94 2676.18,1502.28 2676.5,1489.5C 2677.1,1439.16 2677.94,1388.83 2679,1338.5C 2681.31,1334.02 2684.48,1330.36 2688.5,1327.5 Z M 2613.5,1449.5 C 2621.18,1448.91 2621.85,1449.91 2615.5,1452.5C 2616.85,1453.68 2616.69,1454.68 2615,1455.5C 2613.68,1453.75 2613.18,1451.75 2613.5,1449.5 Z"/></g>
<g><path style="opacity:0.998" fill="#86b64a" d="M 2984.5,1276.5 C 2985.93,1277.34 2987.26,1278.34 2988.5,1279.5C 2991.02,1291.31 2991.02,1303.15 2988.5,1315C 2989.04,1320.18 2989.71,1325.35 2990.5,1330.5C 2989.21,1341.19 2989.21,1351.86 2990.5,1362.5C 2989.75,1364.33 2988.75,1366 2987.5,1367.5C 2987.81,1368.31 2988.31,1368.97 2989,1369.5C 2990.49,1422.82 2990.83,1476.16 2990,1529.5C 2989.5,1539.82 2987,1549.48 2982.5,1558.5C 2981.5,1558.41 2980.67,1558.75 2980,1559.5C 2979.67,1558.83 2979.33,1558.17 2979,1557.5C 2978.5,1558.67 2977.67,1559.5 2976.5,1560C 2976.96,1560.41 2977.29,1560.91 2977.5,1561.5C 2976.26,1562.28 2975.26,1563.28 2974.5,1564.5C 2975.17,1564.83 2975.83,1565.17 2976.5,1565.5C 2975.5,1566.5 2974.5,1567.5 2973.5,1568.5C 2971.74,1566.52 2969.74,1566.19 2967.5,1567.5C 2967.62,1568.11 2967.96,1568.44 2968.5,1568.5C 2970.23,1569.24 2971.23,1570.57 2971.5,1572.5C 2968.09,1576.05 2964.09,1578.88 2959.5,1581C 2943.87,1586.85 2927.71,1589.35 2911,1588.5C 2860.49,1593.3 2833.16,1570.63 2829,1520.5C 2827,1443 2827.17,1365.5 2829.5,1288C 2829.83,1283.83 2830.17,1279.67 2830.5,1275.5C 2831.74,1274.75 2833.07,1274.42 2834.5,1274.5C 2852.51,1274.17 2870.51,1274.5 2888.5,1275.5C 2888.17,1276.17 2887.83,1276.83 2887.5,1277.5C 2888.63,1278.6 2889.46,1278.27 2890,1276.5C 2890.2,1278.38 2890.7,1280.05 2891.5,1281.5C 2893.14,1327.97 2893.48,1374.47 2892.5,1421C 2892.6,1456.84 2893.1,1492.67 2894,1528.5C 2903.39,1539.44 2913.06,1539.78 2923,1529.5C 2925.97,1523.91 2927.31,1517.91 2927,1511.5C 2927.26,1489.83 2927.76,1468.16 2928.5,1446.5C 2928.41,1441.79 2927.91,1437.12 2927,1432.5C 2926.83,1408.5 2926.67,1384.5 2926.5,1360.5C 2926.39,1332.48 2926.89,1304.48 2928,1276.5C 2928.37,1275.58 2928.87,1274.75 2929.5,1274C 2947.89,1273.55 2966.22,1274.38 2984.5,1276.5 Z M 2867.5,1409.5 C 2869.5,1408.31 2870.33,1408.98 2870,1411.5C 2869.29,1410.62 2868.46,1409.95 2867.5,1409.5 Z M 2844.5,1488.5 C 2845.68,1488.28 2846.68,1488.61 2847.5,1489.5C 2845.95,1490.8 2844.95,1490.46 2844.5,1488.5 Z M 2942.5,1544.5 C 2943.59,1544.62 2944.25,1545.29 2944.5,1546.5C 2943.58,1548.85 2942.58,1548.68 2941.5,1546C 2942.06,1545.62 2942.39,1545.12 2942.5,1544.5 Z"/></g>
<g><path style="opacity:0.141" fill="#c7daa7" d="M 2984.5,1276.5 C 2985.83,1276.5 2987.17,1276.5 2988.5,1276.5C 2988.5,1277.5 2988.5,1278.5 2988.5,1279.5C 2987.26,1278.34 2985.93,1277.34 2984.5,1276.5 Z"/></g>
<g><path style="opacity:0.998" fill="#86b54a" d="M 3052.5,1275.5 C 3080.86,1275.2 3109.19,1275.53 3137.5,1276.5C 3137.5,1277.83 3137.5,1279.17 3137.5,1280.5C 3136.13,1280.34 3134.79,1280.51 3133.5,1281C 3135.04,1282.19 3136.71,1282.52 3138.5,1282C 3139.36,1280.86 3140.36,1279.53 3141.5,1278C 3151.87,1277.34 3161.53,1279.68 3170.5,1285C 3180.01,1290.84 3187.84,1298.34 3194,1307.5C 3200.41,1321.66 3204.25,1336.49 3205.5,1352C 3204.59,1366.83 3203.76,1381.66 3203,1396.5C 3201.3,1405.95 3196.8,1413.78 3189.5,1420C 3183.62,1423.19 3177.62,1426.19 3171.5,1429C 3169.94,1429.94 3168.61,1431.11 3167.5,1432.5C 3174.72,1437.7 3181.88,1443.03 3189,1448.5C 3192.85,1454.21 3196.19,1460.21 3199,1466.5C 3203.26,1491.31 3205.6,1516.31 3206,1541.5C 3208.32,1552.76 3210.32,1564.1 3212,1575.5C 3212.98,1579.9 3212.48,1584.07 3210.5,1588C 3190.5,1588.67 3170.5,1588.67 3150.5,1588C 3149.69,1587.69 3149.03,1587.19 3148.5,1586.5C 3143.43,1575.43 3140.93,1563.76 3141,1551.5C 3139.42,1524.19 3138.42,1496.86 3138,1469.5C 3135.77,1464.27 3131.94,1460.77 3126.5,1459C 3119.41,1456.65 3112.24,1455.82 3105,1456.5C 3103.21,1461.5 3103.37,1466.5 3105.5,1471.5C 3105.07,1485.77 3104.41,1500.11 3103.5,1514.5C 3104.56,1538.16 3104.72,1561.83 3104,1585.5C 3103.17,1586.33 3102.33,1587.17 3101.5,1588C 3082.17,1588.67 3062.83,1588.67 3043.5,1588C 3043,1587.5 3042.5,1587 3042,1586.5C 3041,1568.68 3040.5,1550.85 3040.5,1533C 3040.52,1451.18 3040.68,1369.35 3041,1287.5C 3041.52,1284.08 3042.35,1280.75 3043.5,1277.5C 3046.64,1276.83 3049.64,1276.17 3052.5,1275.5 Z M 3134.5,1396.5 C 3133.09,1396.97 3132.43,1397.97 3132.5,1399.5C 3130.26,1401.89 3127.6,1403.73 3124.5,1405C 3117.87,1406.05 3111.21,1406.55 3104.5,1406.5C 3105.88,1380.16 3106.54,1353.82 3106.5,1327.5C 3115.46,1327.38 3124.13,1328.88 3132.5,1332C 3136.47,1335.56 3138.3,1340.06 3138,1345.5C 3138.81,1359.2 3138.48,1372.86 3137,1386.5C 3136.47,1389.93 3135.63,1393.26 3134.5,1396.5 Z M 3189.5,1392.5 C 3193.66,1395.22 3193.33,1395.88 3188.5,1394.5C 3188.86,1393.82 3189.2,1393.15 3189.5,1392.5 Z M 3113.5,1421.5 C 3114.76,1421.46 3115.76,1421.96 3116.5,1423C 3113.37,1425.26 3112.37,1424.76 3113.5,1421.5 Z"/></g>
<g><path style="opacity:0.086" fill="#c6dba5" d="M 270.5,1281.5 C 269.833,1281.83 269.167,1282.17 268.5,1282.5C 269.032,1279.54 269.699,1279.21 270.5,1281.5 Z"/></g>
<g><path style="opacity:0.984" fill="#8bb852" d="M 270.5,1281.5 C 273.782,1285.83 275.616,1290.83 276,1296.5C 272.251,1353.26 275.918,1409.59 287,1465.5C 297.07,1513.59 305.737,1561.92 313,1610.5C 316.605,1616.05 321.772,1619.22 328.5,1620C 314.522,1624.56 304.688,1620.06 299,1606.5C 296.723,1600.67 295.056,1594.67 294,1588.5C 291.781,1573.53 289.781,1558.53 288,1543.5C 272.305,1481.3 263.805,1418.13 262.5,1354C 262.763,1330.01 264.763,1306.17 268.5,1282.5C 269.167,1282.17 269.833,1281.83 270.5,1281.5 Z"/></g>
<g><path style="opacity:0.975" fill="#8bb851" d="M 609.5,1445.5 C 609.158,1446.34 608.492,1446.67 607.5,1446.5C 604.984,1446.24 602.65,1445.41 600.5,1444C 596.694,1440.19 592.86,1436.36 589,1432.5C 589.207,1434.75 589.373,1437.08 589.5,1439.5C 589.822,1445.36 589.489,1451.02 588.5,1456.5C 578.863,1442.01 569.363,1427.34 560,1412.5C 553.257,1403.57 544.423,1398.23 533.5,1396.5C 534.975,1389.88 537.808,1383.88 542,1378.5C 546.833,1373.67 551.667,1368.83 556.5,1364C 575.326,1350.75 594.326,1337.75 613.5,1325C 621.706,1318.46 628.872,1310.96 635,1302.5C 631.221,1320.55 622.388,1335.72 608.5,1348C 601.368,1354.4 593.701,1360.07 585.5,1365C 572.167,1372.67 558.833,1380.33 545.5,1388C 557.021,1396.27 569.354,1403.27 582.5,1409C 597.443,1416.78 606.443,1428.94 609.5,1445.5 Z"/></g>
<g><path style="opacity:0.341" fill="#c3d7a0" d="M 2535.5,1322.5 C 2534.66,1322.84 2534.33,1323.51 2534.5,1324.5C 2533.22,1323.61 2533.22,1322.61 2534.5,1321.5C 2535.11,1321.62 2535.44,1321.96 2535.5,1322.5 Z"/></g>
<g><path style="opacity:0.996" fill="#87b64b" d="M 2116.5,1421.5 C 2115.96,1421.56 2115.62,1421.89 2115.5,1422.5C 2123.32,1423.82 2130.99,1423.82 2138.5,1422.5C 2154.77,1393.72 2171.27,1365.05 2188,1336.5C 2196.42,1335.35 2204.92,1335.18 2213.5,1336C 2196.83,1364.67 2180.17,1393.33 2163.5,1422C 2171.34,1422.17 2179.01,1422.67 2186.5,1423.5C 2186.5,1430.17 2186.5,1436.83 2186.5,1443.5C 2178.47,1443.17 2170.47,1443.5 2162.5,1444.5C 2162.62,1445.11 2162.96,1445.44 2163.5,1445.5C 2180.22,1473.57 2196.56,1501.9 2212.5,1530.5C 2204.68,1531.49 2196.68,1531.83 2188.5,1531.5C 2171.83,1502.5 2155.17,1473.5 2138.5,1444.5C 2130.99,1443.18 2123.32,1443.18 2115.5,1444.5C 2115.62,1445.11 2115.96,1445.44 2116.5,1445.5C 2133.62,1474.08 2149.96,1503.08 2165.5,1532.5C 2157.25,1532.82 2149.08,1532.48 2141,1531.5C 2124.75,1502.67 2108.25,1474 2091.5,1445.5C 2083.85,1444.34 2076.19,1444.17 2068.5,1445C 2085.49,1473.15 2101.82,1501.65 2117.5,1530.5C 2110.02,1531.49 2102.35,1531.83 2094.5,1531.5C 2077.26,1502.7 2060.26,1473.7 2043.5,1444.5C 1811,1443.33 1578.33,1443.17 1345.5,1444C 1346.24,1445.04 1347.24,1445.54 1348.5,1445.5C 1380.86,1454.44 1410.86,1468.28 1438.5,1487C 1449.83,1495.48 1457.83,1506.32 1462.5,1519.5C 1462.5,1520.83 1462.5,1522.17 1462.5,1523.5C 1459.29,1523.19 1456.29,1523.52 1453.5,1524.5C 1449.78,1524.59 1446.11,1524.76 1442.5,1525C 1435.5,1512.67 1425.83,1503 1413.5,1496C 1372.59,1474.81 1329.59,1459.14 1284.5,1449C 1259.24,1443.71 1233.91,1438.88 1208.5,1434.5C 1208.5,1433.83 1208.5,1433.17 1208.5,1432.5C 1280.82,1425.45 1348.82,1404.61 1412.5,1370C 1421.84,1364.67 1430,1357.84 1437,1349.5C 1439.32,1346.52 1440.82,1343.19 1441.5,1339.5C 1444.83,1339.5 1448.17,1339.5 1451.5,1339.5C 1455.17,1339.5 1458.83,1339.5 1462.5,1339.5C 1462.5,1341.17 1462.5,1342.83 1462.5,1344.5C 1461.49,1350.18 1459.16,1355.18 1455.5,1359.5C 1455.63,1358.76 1455.46,1358.09 1455,1357.5C 1453.39,1360.28 1451.23,1362.61 1448.5,1364.5C 1447.55,1366.05 1447.21,1367.71 1447.5,1369.5C 1437.64,1379.11 1426.64,1387.27 1414.5,1394C 1393.49,1404.84 1371.83,1414.01 1349.5,1421.5C 1348.23,1422.09 1346.9,1422.59 1345.5,1423C 1462,1423.17 1578.5,1423.33 1695,1423.5C 1811.84,1423.5 1928.34,1422.83 2044.5,1421.5C 2060.65,1393.19 2076.82,1364.86 2093,1336.5C 2101.42,1335.35 2109.92,1335.18 2118.5,1336C 2102.09,1364.83 2085.42,1393.5 2068.5,1422C 2076.19,1422.83 2083.85,1422.66 2091.5,1421.5C 2108.09,1393.33 2124.42,1365 2140.5,1336.5C 2148.83,1335.17 2157.17,1335.17 2165.5,1336.5C 2149.41,1365.02 2133.07,1393.36 2116.5,1421.5 Z"/></g>
<g><path style="opacity:0.996" fill="#87b64b" d="M 3743.5,1421.5 C 3747.11,1422.82 3751.11,1423.49 3755.5,1423.5C 3759.92,1423.54 3763.59,1423.2 3766.5,1422.5C 3750.22,1393.45 3733.56,1364.62 3716.5,1336C 3724.83,1335.33 3733.17,1335.33 3741.5,1336C 3758.56,1364.62 3775.22,1393.45 3791.5,1422.5C 4024.33,1423.67 4257.33,1423.83 4490.5,1423C 4489.26,1422.21 4487.92,1421.71 4486.5,1421.5C 4459.54,1413.68 4433.87,1402.85 4409.5,1389C 4397.4,1381.23 4386.9,1371.73 4378,1360.5C 4375,1355.5 4372.83,1350.16 4371.5,1344.5C 4371.71,1343.91 4372.04,1343.41 4372.5,1343C 4379.53,1342.72 4386.53,1342.22 4393.5,1341.5C 4393.76,1344.02 4394.59,1346.35 4396,1348.5C 4404.52,1359 4414.68,1367.5 4426.5,1374C 4480.91,1400.02 4537.91,1417.85 4597.5,1427.5C 4597.41,1428.5 4597.75,1429.33 4598.5,1430C 4600.73,1430.62 4602.56,1431.79 4604,1433.5C 4605.97,1431.9 4607.8,1431.73 4609.5,1433C 4608.83,1433.33 4608.17,1433.67 4607.5,1434C 4608.47,1435.2 4609.47,1435.7 4610.5,1435.5C 4609.4,1436.18 4608.4,1436.84 4607.5,1437.5C 4545.69,1445.49 4487.02,1463.66 4431.5,1492C 4417.38,1499.13 4405.55,1508.97 4396,1521.5C 4394.59,1523.65 4393.76,1525.98 4393.5,1528.5C 4386.17,1528.5 4378.83,1528.5 4371.5,1528.5C 4372.79,1519.24 4376.29,1510.91 4382,1503.5C 4398.82,1485.7 4418.65,1472.2 4441.5,1463C 4455.91,1456.47 4470.58,1450.64 4485.5,1445.5C 4486.92,1445.29 4488.26,1444.79 4489.5,1444C 4256.67,1443.17 4024,1443.33 3791.5,1444.5C 3775.11,1473.61 3758.44,1502.61 3741.5,1531.5C 3737.5,1531.83 3733.5,1532.17 3729.5,1532.5C 3724.99,1532.64 3720.66,1532.14 3716.5,1531C 3733.3,1502.55 3749.97,1474.05 3766.5,1445.5C 3767.04,1445.44 3767.38,1445.11 3767.5,1444.5C 3759.68,1443.18 3752.01,1443.18 3744.5,1444.5C 3727.74,1473.7 3710.74,1502.7 3693.5,1531.5C 3685.65,1531.83 3677.98,1531.49 3670.5,1530.5C 3686.18,1501.65 3702.51,1473.15 3719.5,1445C 3711.81,1444.17 3704.15,1444.34 3696.5,1445.5C 3679.75,1474 3663.25,1502.67 3647,1531.5C 3638.92,1532.48 3630.75,1532.82 3622.5,1532.5C 3638.04,1503.08 3654.38,1474.08 3671.5,1445.5C 3672.04,1445.44 3672.38,1445.11 3672.5,1444.5C 3664.53,1443.5 3656.53,1443.17 3648.5,1443.5C 3648.5,1436.83 3648.5,1430.17 3648.5,1423.5C 3656.53,1423.83 3664.53,1423.5 3672.5,1422.5C 3672.38,1421.89 3672.04,1421.56 3671.5,1421.5C 3654.93,1393.36 3638.59,1365.02 3622.5,1336.5C 3630.83,1335.17 3639.17,1335.17 3647.5,1336.5C 3663.58,1365 3679.91,1393.33 3696.5,1421.5C 3704.15,1422.66 3711.81,1422.83 3719.5,1422C 3702.58,1393.5 3685.91,1364.83 3669.5,1336C 3677.83,1335.33 3686.17,1335.33 3694.5,1336C 3710.97,1364.45 3727.3,1392.95 3743.5,1421.5 Z"/></g>
<g><path style="opacity:0.141" fill="#c7daa7" d="M 1451.5,1339.5 C 1455.3,1338.52 1459.3,1338.18 1463.5,1338.5C 1463.79,1340.74 1463.46,1342.74 1462.5,1344.5C 1462.5,1342.83 1462.5,1341.17 1462.5,1339.5C 1458.83,1339.5 1455.17,1339.5 1451.5,1339.5 Z"/></g>
<g><path style="opacity:0.983" fill="#8cb953" d="M 922.5,1428.5 C 921.833,1429.5 921.167,1430.5 920.5,1431.5C 914.985,1422.96 912.319,1413.46 912.5,1403C 912.927,1387.02 916.594,1371.86 923.5,1357.5C 924.167,1356.17 924.833,1356.17 925.5,1357.5C 928.7,1365 930.034,1372.84 929.5,1381C 928.629,1397.06 926.296,1412.89 922.5,1428.5 Z"/></g>
<g><path style="opacity:0.85" fill="#9ac066" d="M 1455.5,1359.5 C 1453.31,1363.21 1450.64,1366.54 1447.5,1369.5C 1447.21,1367.71 1447.55,1366.05 1448.5,1364.5C 1451.23,1362.61 1453.39,1360.28 1455,1357.5C 1455.46,1358.09 1455.63,1358.76 1455.5,1359.5 Z"/></g>
<g><path style="opacity:1" fill="#c3d8a2" d="M 2714.5,1359.5 C 2716.34,1359.64 2716.67,1360.31 2715.5,1361.5C 2714.7,1361.04 2714.37,1360.38 2714.5,1359.5 Z"/></g>
<g><path style="opacity:0.99" fill="#8ab851" d="M 524.5,1383.5 C 526.911,1383.14 528.411,1384.14 529,1386.5C 529.167,1390.83 529.333,1395.17 529.5,1399.5C 527.738,1426.16 526.072,1452.83 524.5,1479.5C 525.191,1491.18 526.024,1502.84 527,1514.5C 529.401,1532.47 531.568,1550.47 533.5,1568.5C 533.472,1572.24 532.972,1575.9 532,1579.5C 530.741,1583.22 528.408,1584.22 525,1582.5C 520.803,1573.91 517.803,1564.91 516,1555.5C 510.543,1530.76 507.043,1505.76 505.5,1480.5C 505.649,1451.32 509.482,1422.66 517,1394.5C 518.548,1390.03 521.048,1386.37 524.5,1383.5 Z"/></g>
<g><path style="opacity:0.165" fill="#d1e0b5" d="M 2955.5,1385.5 C 2954.51,1385.33 2953.84,1385.66 2953.5,1386.5C 2952.12,1385.7 2952.28,1385.03 2954,1384.5C 2954.76,1384.57 2955.26,1384.9 2955.5,1385.5 Z"/></g>
<g><path style="opacity:0.475" fill="#bdd398" d="M 3134.5,1396.5 C 3134.57,1398.03 3133.91,1399.03 3132.5,1399.5C 3132.43,1397.97 3133.09,1396.97 3134.5,1396.5 Z"/></g>
<g><path style="opacity:0.451" fill="#bcd597" d="M 606.5,1409.5 C 605.596,1410.21 605.263,1411.21 605.5,1412.5C 604.086,1410.96 603.753,1409.29 604.5,1407.5C 605.522,1407.86 606.189,1408.52 606.5,1409.5 Z"/></g>
<g><path style="opacity:0.971" fill="#8bb852" d="M 606.5,1409.5 C 631.522,1428.96 655.355,1449.96 678,1472.5C 684.077,1479.41 689.577,1486.74 694.5,1494.5C 672.944,1483.88 652.61,1470.72 633.5,1455C 620.703,1443.05 611.369,1428.88 605.5,1412.5C 605.263,1411.21 605.596,1410.21 606.5,1409.5 Z"/></g>
<g><path style="opacity:0.29" fill="#d5e2ba" d="M 3046.5,1420.5 C 3048.23,1420.84 3048.73,1421.84 3048,1423.5C 3047.49,1422.47 3046.99,1421.47 3046.5,1420.5 Z"/></g>
<g><path style="opacity:0.149" fill="#bbd397" d="M 1349.5,1421.5 C 1581.07,1422.83 1812.74,1422.83 2044.5,1421.5C 1928.34,1422.83 1811.84,1423.5 1695,1423.5C 1578.5,1423.33 1462,1423.17 1345.5,1423C 1346.9,1422.59 1348.23,1422.09 1349.5,1421.5 Z"/></g>
<g><path style="opacity:0.028" fill="#dbe6c4" d="M 2116.5,1421.5 C 2123.65,1422.49 2130.98,1422.82 2138.5,1422.5C 2130.99,1423.82 2123.32,1423.82 2115.5,1422.5C 2115.62,1421.89 2115.96,1421.56 2116.5,1421.5 Z"/></g>
<g><path style="opacity:0.027" fill="#dbe6c4" d="M 3671.5,1421.5 C 3672.04,1421.56 3672.38,1421.89 3672.5,1422.5C 3664.53,1423.5 3656.53,1423.83 3648.5,1423.5C 3656.17,1422.83 3663.83,1422.17 3671.5,1421.5 Z"/></g>
<g><path style="opacity:0.027" fill="#dae6c2" d="M 3743.5,1421.5 C 3751.08,1422.47 3758.75,1422.8 3766.5,1422.5C 3763.59,1423.2 3759.92,1423.54 3755.5,1423.5C 3751.11,1423.49 3747.11,1422.82 3743.5,1421.5 Z"/></g>
<g><path style="opacity:0.149" fill="#bcd398" d="M 4486.5,1421.5 C 4487.92,1421.71 4489.26,1422.21 4490.5,1423C 4257.33,1423.83 4024.33,1423.67 3791.5,1422.5C 4023.33,1422.83 4255,1422.5 4486.5,1421.5 Z"/></g>
<g><path style="opacity:0.96" fill="#98bf63" d="M 4597.5,1427.5 C 4608.34,1429.14 4619.01,1431.3 4629.5,1434C 4622.21,1435.49 4614.88,1436.66 4607.5,1437.5C 4608.4,1436.84 4609.4,1436.18 4610.5,1435.5C 4609.47,1435.7 4608.47,1435.2 4607.5,1434C 4608.17,1433.67 4608.83,1433.33 4609.5,1433C 4607.8,1431.73 4605.97,1431.9 4604,1433.5C 4602.56,1431.79 4600.73,1430.62 4598.5,1430C 4597.75,1429.33 4597.41,1428.5 4597.5,1427.5 Z"/></g>
<g><path style="opacity:0.02" fill="#c8dca9" d="M 922.5,1428.5 C 922.762,1429.98 922.429,1431.31 921.5,1432.5C 920.893,1432.38 920.56,1432.04 920.5,1431.5C 921.167,1430.5 921.833,1429.5 922.5,1428.5 Z"/></g>
<g><path style="opacity:0.075" fill="#cadaab" d="M 1208.5,1432.5 C 1208.5,1433.17 1208.5,1433.83 1208.5,1434.5C 1205.83,1433.83 1205.83,1433.17 1208.5,1432.5 Z"/></g>
<g><path style="opacity:1" fill="#d7e2bb" d="M 2881.5,1433.5 C 2884,1433.51 2884.17,1434.18 2882,1435.5C 2881.54,1434.91 2881.37,1434.24 2881.5,1433.5 Z"/></g>
<g><path style="opacity:0.224" fill="#c8dba9" d="M 2855.5,1438.5 C 2855.92,1439.22 2856.58,1439.72 2857.5,1440C 2856.36,1440.75 2855.36,1440.58 2854.5,1439.5C 2854.62,1438.89 2854.96,1438.56 2855.5,1438.5 Z"/></g>
<g><path style="opacity:0.341" fill="#a1c470" d="M 2043.5,1444.5 C 1811.67,1444.17 1580,1444.5 1348.5,1445.5C 1347.24,1445.54 1346.24,1445.04 1345.5,1444C 1578.33,1443.17 1811,1443.33 2043.5,1444.5 Z"/></g>
<g><path style="opacity:0.148" fill="#bdd499" d="M 2138.5,1444.5 C 2130.98,1444.18 2123.65,1444.51 2116.5,1445.5C 2115.96,1445.44 2115.62,1445.11 2115.5,1444.5C 2123.32,1443.18 2130.99,1443.18 2138.5,1444.5 Z"/></g>
<g><path style="opacity:0.149" fill="#c5d9a5" d="M 2186.5,1423.5 C 2187.49,1430.31 2187.82,1437.31 2187.5,1444.5C 2179.32,1444.17 2171.32,1444.51 2163.5,1445.5C 2162.96,1445.44 2162.62,1445.11 2162.5,1444.5C 2170.47,1443.5 2178.47,1443.17 2186.5,1443.5C 2186.5,1436.83 2186.5,1430.17 2186.5,1423.5 Z"/></g>
<g><path style="opacity:0.149" fill="#bdd49a" d="M 3648.5,1443.5 C 3656.53,1443.17 3664.53,1443.5 3672.5,1444.5C 3672.38,1445.11 3672.04,1445.44 3671.5,1445.5C 3663.83,1444.83 3656.17,1444.17 3648.5,1443.5 Z"/></g>
<g><path style="opacity:0.149" fill="#bcd498" d="M 3744.5,1444.5 C 3752.01,1443.18 3759.68,1443.18 3767.5,1444.5C 3767.38,1445.11 3767.04,1445.44 3766.5,1445.5C 3759.35,1444.51 3752.02,1444.18 3744.5,1444.5 Z"/></g>
<g><path style="opacity:0.149" fill="#bcd498" d="M 3791.5,1444.5 C 4024,1443.33 4256.67,1443.17 4489.5,1444C 4488.26,1444.79 4486.92,1445.29 4485.5,1445.5C 4254.33,1444.5 4023,1444.17 3791.5,1444.5 Z"/></g>
<g><path style="opacity:0.09" fill="#d5e4bc" d="M 609.5,1445.5 C 610.885,1446.3 610.718,1446.97 609,1447.5C 608.235,1447.43 607.735,1447.1 607.5,1446.5C 608.492,1446.67 609.158,1446.34 609.5,1445.5 Z"/></g>
<g><path style="opacity:0.055" fill="#d8e5bf" d="M 669.5,1447.5 C 668.508,1447.33 667.842,1447.66 667.5,1448.5C 666.115,1447.7 666.282,1447.03 668,1446.5C 668.765,1446.57 669.265,1446.9 669.5,1447.5 Z"/></g>
<g><path style="opacity:0.972" fill="#8cb953" d="M 669.5,1447.5 C 685.763,1450.25 699.263,1457.92 710,1470.5C 723.097,1486.18 733.264,1503.68 740.5,1523C 738.369,1522.6 736.369,1521.6 734.5,1520C 728.762,1514.38 722.929,1508.88 717,1503.5C 700.663,1485 684.163,1466.66 667.5,1448.5C 667.842,1447.66 668.508,1447.33 669.5,1447.5 Z"/></g>
<g><path style="opacity:0.318" fill="#abcb80" d="M 589.5,1439.5 C 590.653,1445.65 590.82,1451.99 590,1458.5C 589.283,1457.96 588.783,1457.29 588.5,1456.5C 589.489,1451.02 589.822,1445.36 589.5,1439.5 Z"/></g>
<g><path style="opacity:1" fill="#bfd59b" d="M 2836.5,1476.5 C 2838.34,1476.64 2838.67,1477.31 2837.5,1478.5C 2836.7,1478.04 2836.37,1477.38 2836.5,1476.5 Z"/></g>
<g><path style="opacity:0.212" fill="#cfdfb4" d="M 3280.5,1478.5 C 3279.38,1477.24 3278.71,1477.58 3278.5,1479.5C 3277.49,1479.55 3277.16,1478.55 3277.5,1476.5C 3278.98,1476.24 3280.31,1476.57 3281.5,1477.5C 3281.38,1478.11 3281.04,1478.44 3280.5,1478.5 Z"/></g>
<g><path style="opacity:0.965" fill="#8eba55" d="M 730.5,1485.5 C 739.413,1485.91 746.246,1489.91 751,1497.5C 756.596,1507.48 758.596,1518.15 757,1529.5C 753.962,1526.8 751.295,1523.8 749,1520.5C 742.333,1509.83 735.667,1499.17 729,1488.5C 728.761,1487.21 729.261,1486.21 730.5,1485.5 Z"/></g>
<g><path style="opacity:0.165" fill="#d8e3bd" d="M 3401.5,1495.5 C 3400.83,1495.5 3400.5,1495.83 3400.5,1496.5C 3399.43,1495.75 3399.26,1494.75 3400,1493.5C 3400.72,1494.04 3401.22,1494.71 3401.5,1495.5 Z"/></g>
<g><path style="opacity:1" fill="#b9d294" d="M 3187.5,1503.5 C 3189.37,1504.79 3189.53,1506.12 3188,1507.5C 3187.51,1506.21 3187.34,1504.87 3187.5,1503.5 Z"/></g>
<g><path style="opacity:0.29" fill="#bdd599" d="M 765.5,1510.5 C 763.744,1511.55 763.077,1513.22 763.5,1515.5C 762.539,1513.74 762.205,1511.74 762.5,1509.5C 763.791,1509.26 764.791,1509.6 765.5,1510.5 Z"/></g>
<g><path style="opacity:0.963" fill="#8db954" d="M 765.5,1510.5 C 771.697,1512.53 776.197,1516.53 779,1522.5C 783.06,1531.07 785.06,1540.07 785,1549.5C 772.708,1541.38 765.541,1530.05 763.5,1515.5C 763.077,1513.22 763.744,1511.55 765.5,1510.5 Z"/></g>
<g><path style="opacity:0.157" fill="#cfdfb3" d="M 3373.5,1511.5 C 3373.74,1513.89 3373.07,1515.89 3371.5,1517.5C 3370.96,1517.44 3370.62,1517.11 3370.5,1516.5C 3371.79,1514.9 3372.79,1513.23 3373.5,1511.5 Z"/></g>
<g><path style="opacity:0.148" fill="#c2d6a0" d="M 1462.5,1519.5 C 1463.45,1520.92 1463.78,1522.59 1463.5,1524.5C 1460.17,1524.5 1456.83,1524.5 1453.5,1524.5C 1456.29,1523.52 1459.29,1523.19 1462.5,1523.5C 1462.5,1522.17 1462.5,1520.83 1462.5,1519.5 Z"/></g>
<g><path style="opacity:0.063" fill="#d2e2b8" d="M 793.5,1527.5 C 791.952,1527.82 791.285,1528.82 791.5,1530.5C 790.566,1529.43 790.232,1528.1 790.5,1526.5C 791.791,1526.26 792.791,1526.6 793.5,1527.5 Z"/></g>
<g><path style="opacity:0.965" fill="#8cb954" d="M 793.5,1527.5 C 798.742,1529.72 803.242,1533.05 807,1537.5C 814.542,1548.75 821.709,1560.25 828.5,1572C 823.524,1571.53 818.858,1569.86 814.5,1567C 801.364,1558.22 793.697,1546.05 791.5,1530.5C 791.285,1528.82 791.952,1527.82 793.5,1527.5 Z"/></g>
<g><path style="opacity:0.976" fill="#8ab851" d="M 805.5,1526.5 C 845.186,1544.35 879.686,1569.35 909,1601.5C 917.345,1611.52 924.511,1622.35 930.5,1634C 926.203,1635.92 922.203,1635.25 918.5,1632C 910.137,1623.3 901.47,1614.97 892.5,1607C 872.787,1590.95 852.787,1575.29 832.5,1560C 821.746,1550.1 812.746,1538.93 805.5,1526.5 Z"/></g>
<g><path style="opacity:0.028" fill="#dbe6c4" d="M 2117.5,1530.5 C 2118.04,1530.56 2118.38,1530.89 2118.5,1531.5C 2110.34,1532.82 2102.34,1532.82 2094.5,1531.5C 2102.35,1531.83 2110.02,1531.49 2117.5,1530.5 Z"/></g>
<g><path style="opacity:0.028" fill="#dce7c6" d="M 2212.5,1530.5 C 2213.04,1530.56 2213.38,1530.89 2213.5,1531.5C 2205.01,1532.82 2196.68,1532.82 2188.5,1531.5C 2196.68,1531.83 2204.68,1531.49 2212.5,1530.5 Z"/></g>
<g><path style="opacity:0.028" fill="#dbe6c4" d="M 3670.5,1530.5 C 3677.98,1531.49 3685.65,1531.83 3693.5,1531.5C 3685.66,1532.82 3677.66,1532.82 3669.5,1531.5C 3669.62,1530.89 3669.96,1530.56 3670.5,1530.5 Z"/></g>
<g><path style="opacity:0.977" fill="#8bb852" d="M 503.5,1542.5 C 504.833,1542.5 506.167,1542.5 507.5,1542.5C 509.299,1552.43 510.632,1562.43 511.5,1572.5C 512.217,1583.58 507.217,1590.41 496.5,1593C 490.833,1593.67 485.167,1593.67 479.5,1593C 465.114,1589.2 450.78,1585.2 436.5,1581C 430.245,1579.87 424.245,1580.54 418.5,1583C 417.54,1584.42 416.707,1585.92 416,1587.5C 415.868,1593.51 415.868,1599.51 416,1605.5C 412.832,1603.84 411.165,1601.17 411,1597.5C 409.392,1587.68 410.725,1578.35 415,1569.5C 419.491,1564.74 424.991,1563.24 431.5,1565C 443.833,1570 456.167,1575 468.5,1580C 477.846,1582.45 486.013,1580.29 493,1573.5C 494.275,1571.28 495.275,1568.95 496,1566.5C 496.71,1560.11 497.71,1553.77 499,1547.5C 500.025,1545.31 501.525,1543.65 503.5,1542.5 Z"/></g>
<g><path style="opacity:0.952" fill="#95bd60" d="M 2982.5,1558.5 C 2980.28,1564.26 2976.61,1568.93 2971.5,1572.5C 2971.23,1570.57 2970.23,1569.24 2968.5,1568.5C 2967.96,1568.44 2967.62,1568.11 2967.5,1567.5C 2969.74,1566.19 2971.74,1566.52 2973.5,1568.5C 2974.5,1567.5 2975.5,1566.5 2976.5,1565.5C 2975.83,1565.17 2975.17,1564.83 2974.5,1564.5C 2975.26,1563.28 2976.26,1562.28 2977.5,1561.5C 2977.29,1560.91 2976.96,1560.41 2976.5,1560C 2977.67,1559.5 2978.5,1558.67 2979,1557.5C 2979.33,1558.17 2979.67,1558.83 2980,1559.5C 2980.67,1558.75 2981.5,1558.41 2982.5,1558.5 Z"/></g>
<g><path style="opacity:0.176" fill="#d4e1b9" d="M 2948.5,1575.5 C 2948.17,1574.17 2947.83,1574.17 2947.5,1575.5C 2946.25,1574.53 2946.58,1573.86 2948.5,1573.5C 2950.91,1573.81 2950.91,1574.48 2948.5,1575.5 Z"/></g>
<g><path style="opacity:0.973" fill="#8cb853" d="M 399.5,1606.5 C 399.158,1607.34 398.492,1607.67 397.5,1607.5C 387.397,1602.61 377.397,1597.45 367.5,1592C 357.907,1587.05 348.574,1587.38 339.5,1593C 336.553,1598.39 333.22,1603.56 329.5,1608.5C 325.053,1611.56 321.22,1610.9 318,1606.5C 317.799,1593.07 323.632,1583.23 335.5,1577C 348.386,1576.29 361.053,1577.63 373.5,1581C 384.02,1587.69 392.686,1596.19 399.5,1606.5 Z"/></g>
<g><path style="opacity:0.968" fill="#8fba57" d="M 419.5,1611.5 C 424.5,1610.83 429.5,1610.17 434.5,1609.5C 443.266,1609.1 451.933,1607.93 460.5,1606C 469.772,1603.18 479.105,1600.68 488.5,1598.5C 488.649,1599.55 488.483,1600.55 488,1601.5C 467.357,1619.62 444.524,1622.95 419.5,1611.5 Z"/></g>
<g><path style="opacity:0.029" fill="#d8e4c0" d="M 2575.5,1604.5 C 2576.71,1603.22 2578.04,1603.22 2579.5,1604.5C 2579.04,1605.3 2578.38,1605.63 2577.5,1605.5C 2577.16,1604.66 2576.49,1604.33 2575.5,1604.5 Z"/></g>
<g><path style="opacity:0.029" fill="#c4d9a2" d="M 2575.5,1604.5 C 2576.49,1604.33 2577.16,1604.66 2577.5,1605.5C 2574.53,1606.33 2571.53,1606.5 2568.5,1606C 2570.68,1604.8 2573.01,1604.3 2575.5,1604.5 Z"/></g>
<g><path style="opacity:0.967" fill="#8fba57" d="M 378.5,1606.5 C 386.612,1606.06 388.279,1608.89 383.5,1615C 369.779,1621.06 355.446,1623.06 340.5,1621C 333.062,1620.17 332.729,1618.5 339.5,1616C 353.196,1615.16 366.196,1611.99 378.5,1606.5 Z"/></g>
<g><path style="opacity:0.106" fill="#c3d9a1" d="M 399.5,1606.5 C 400.885,1607.3 400.718,1607.97 399,1608.5C 398.235,1608.43 397.735,1608.1 397.5,1607.5C 398.492,1607.67 399.158,1607.34 399.5,1606.5 Z"/></g>
<g><path style="opacity:0.008" fill="#dbe8c5" d="M 434.5,1609.5 C 429.5,1610.17 424.5,1610.83 419.5,1611.5C 418.957,1611.44 418.624,1611.11 418.5,1610.5C 423.792,1609.51 429.125,1609.17 434.5,1609.5 Z"/></g>
</svg>
